<svg width="350" height="350" viewBox="0 0 350 350" fill="none" xmlns="http://www.w3.org/2000/svg">
<path d="M29.1667 329.467H189V23.8H152.439C84.3578 23.8 29.1667 79.0336 29.1667 147.167V329.467Z" fill="#115693"/>
<path d="M188.067 329.7H316.167V160.903C316.167 93.6886 261.871 39.2 194.893 39.2H188.067V329.7Z" fill="#050C04"/>
<path d="M222.262 299.149L139.983 321.124C135.745 322.256 131.397 319.736 130.271 315.496L102.736 211.777C101.61 207.538 104.133 203.183 108.371 202.051L190.651 180.076C194.888 178.944 199.237 181.464 200.362 185.704L227.898 289.423C229.023 293.663 226.5 298.017 222.262 299.149Z" fill="#FFEEA6"/>
<path d="M187.048 190.012L116.522 208.861L141.925 304.769L212.451 285.92L187.048 190.012Z" fill="#050C04"/>
<path d="M165.541 205.227L143.293 211.08C139.67 212.033 135.95 209.881 134.983 206.272L132.082 195.45L167.447 186.146L170.348 196.969C171.316 200.577 169.163 204.274 165.541 205.227Z" fill="#1E9E9C"/>
<path d="M310.36 131.295C310.36 110.074 293.135 92.8708 271.886 92.8708C270.883 92.8708 269.888 92.9096 268.904 92.985L262.999 93.2367C242.313 93.2367 228.359 109.984 228.359 130.644V145.765H235.175V151.234H237.586L237.555 155.809C237.505 163.173 243.423 167.204 250.795 167.289L257.833 167.371L257.862 189.615H287.557L287.531 166.408C300.983 160.42 310.36 146.952 310.36 131.295Z" fill="#FFC1A3"/>
<path d="M244.243 131.459C246.221 131.459 247.824 129.858 247.824 127.883C247.824 125.908 246.221 124.307 244.243 124.307C242.265 124.307 240.662 125.908 240.662 127.883C240.662 129.858 242.265 131.459 244.243 131.459Z" fill="#0F0F0E"/>
<path d="M240.934 119.959H247.546C248.517 119.959 249.305 119.172 249.305 118.201C249.305 117.231 248.518 116.444 247.546 116.444H240.934C239.963 116.444 239.175 117.231 239.175 118.201C239.175 119.172 239.962 119.959 240.934 119.959Z" fill="#FFEEA6"/>
<path d="M325.033 330.867L274.447 330.861L287.54 176.638L300.075 176.764C313.859 176.764 325.034 187.924 325.034 201.69V330.867H325.033Z" fill="#108E82"/>
<path d="M256.959 188.646C238.872 193.507 225.559 209.997 225.559 229.595V330.861H287.905L287.543 176.638L256.959 188.646Z" fill="#108E82"/>
<path d="M243.978 98.9009C243.978 98.9009 242.902 87.2714 259.445 81.3486C265.758 79.0885 272.275 82.0602 272.275 82.0602C272.275 82.0602 266.646 82.0294 266.743 84.7675C266.772 85.5683 267.602 86.0978 268.381 85.905C271.409 85.1557 280.785 83.0729 288.634 83.8568C288.634 83.8568 318.748 87.3256 309.122 121.589L243.978 98.9009Z" fill="#FFEEA6"/>
<path d="M265.283 101.89V112.388C265.283 117.977 268.109 123.187 272.797 126.239L279.131 130.363L276.279 143.922L287.54 176.638C287.54 176.638 347.072 180.445 307.913 117.076L265.283 101.89Z" fill="#FFEEA6"/>
<path d="M278.287 147.818C283.217 147.818 287.214 143.827 287.214 138.903C287.214 133.979 283.217 129.987 278.287 129.987C273.357 129.987 269.36 133.979 269.36 138.903C269.36 143.827 273.357 147.818 278.287 147.818Z" fill="#FFC1A3"/>
<path d="M304.395 128.451C310.063 128.451 314.658 123.862 314.658 118.201C314.658 112.541 310.063 107.952 304.395 107.952C298.727 107.952 294.133 112.541 294.133 118.201C294.133 123.862 298.727 128.451 304.395 128.451Z" fill="#FFEEA6"/>
<path d="M279.353 215.025H275.631V330.831H279.353V215.025Z" fill="#050C04"/>
<path d="M206.911 330.778L180.886 330.831C178.226 330.805 176.092 328.598 176.118 325.902C176.145 323.207 178.323 321.043 180.983 321.069L176.795 321.028C174.135 321.002 172 318.795 172.027 316.1C172.051 313.686 173.801 311.699 176.077 311.329L173.701 311.271C171.042 311.245 168.907 309.039 168.934 306.343C168.96 303.648 171.138 301.484 173.798 301.51L176.627 301.573C174.66 300.944 173.243 299.07 173.264 296.871C173.291 294.175 175.469 292.011 178.129 292.038L196.283 292.217C202.37 292.277 207.251 297.673 207.185 304.27L206.911 330.778Z" fill="#FFC1A3"/>
<path d="M192.479 285.465C182.582 285.465 174.559 277.452 174.559 267.567V263.916H210.4V267.567C210.4 277.452 202.377 285.465 192.479 285.465Z" fill="#115693"/>
<path d="M230.423 301.358H206.883V330.665H230.423V301.358Z" fill="#108E82"/>
<path d="M195.138 281.177H189.164V318.75H195.138V281.177Z" fill="#115693"/>
<path d="M190.501 302.243H181.119V292.054H190.501C193.318 292.054 195.602 294.335 195.602 297.149C195.602 299.962 193.318 302.243 190.501 302.243Z" fill="#FFC1A3"/>
<path d="M188.312 310.954H178.369V301.884H188.311C190.819 301.884 192.852 303.914 192.852 306.419C192.853 308.924 190.819 310.954 188.312 310.954Z" fill="#FFC1A3"/>
<path d="M195.138 318.751L203.578 324.615H182.501L190.893 318.751H195.138Z" fill="#115693"/>
<path d="M187.938 320.337L179.039 320.758L177.613 310.954H187.555C190.063 310.954 192.479 313.297 192.479 315.802C192.479 318.306 190.446 320.337 187.938 320.337Z" fill="#FFC1A3"/>
<path d="M191.061 329.15H181.119L180.803 321.068L191.061 320.08C193.568 320.08 195.602 322.11 195.602 324.615C195.602 327.12 193.568 329.15 191.061 329.15Z" fill="#FFC1A3"/>
<path d="M192.354 282.56C198.051 282.56 203 279.374 205.519 274.691H179.19C181.708 279.374 186.658 282.56 192.354 282.56Z" fill="#EE442B"/>
<path d="M200.966 220.618L162.422 228.884L163.269 232.754L201.814 224.489L200.966 220.618Z" fill="#FFEEA6"/>
<path d="M146.247 239.64L133.055 232.159L134.673 229.516L145.174 235.471L150.158 227.451L152.857 229.005L146.247 239.64Z" fill="#1E9E9C"/>
<path d="M204.946 242.36L166.384 250.541L167.223 254.413L205.785 246.232L204.946 242.36Z" fill="#FFEEA6"/>
<path d="M151.147 262.04L137.955 254.559L139.573 251.916L150.074 257.871L155.058 249.851L157.757 251.405L151.147 262.04Z" fill="#1E9E9C"/>
<path d="M99.9507 113.641L77.0517 102.588L79.4761 124.315L99.9507 113.641ZM82.4008 110.14L89.9784 113.797L83.203 117.33L82.4008 110.14Z" fill="#FFEEA6"/>
<path d="M211.246 262.66L172.684 270.841L173.523 274.713L212.085 266.532L211.246 262.66Z" fill="#FFEEA6"/>
<path d="M156.747 280.707L143.555 273.225L145.173 270.582L155.674 276.537L160.658 268.518L163.357 270.072L156.747 280.707Z" fill="#1E9E9C"/>
<path d="M103.483 182.933C95.6892 182.933 89.3667 176.611 89.3667 168.817C89.3667 161.023 95.6892 154.7 103.483 154.7C111.277 154.7 117.6 161.023 117.6 168.817C117.6 176.611 111.277 182.933 103.483 182.933ZM103.483 161.132C99.232 161.132 95.7982 164.565 95.7982 168.817C95.7982 173.068 99.232 176.502 103.483 176.502C107.735 176.502 111.168 173.068 111.168 168.817C111.168 164.565 107.735 161.132 103.483 161.132Z" fill="#050C04"/>
<path d="M186.176 304.916C186.168 302.482 184.185 300.518 181.751 300.533L172.52 300.593C170.371 300.606 168.641 302.36 168.655 304.508C168.664 305.964 169.471 307.226 170.658 307.886L166.986 307.91C164.837 307.924 163.107 309.677 163.121 311.826C163.13 313.29 163.947 314.559 165.146 315.215L164.165 315.221C162.017 315.236 160.286 316.989 160.3 319.138C160.314 321.287 162.067 323.017 164.215 323.004L165.741 322.994C164.091 323.454 162.885 324.972 162.897 326.767C162.911 328.916 164.663 330.647 166.811 330.633L186.2 330.527L186.176 304.916Z" fill="#FFC1A3"/>
<path d="M162.675 99.3873L123.26 84.2834C120.015 83.04 118.4 79.4014 119.652 76.1561L123.416 66.4044C124.668 63.1591 128.314 61.5364 131.559 62.7798L170.974 77.8836C174.219 79.1271 175.834 82.7657 174.581 86.011L170.818 95.7627C169.565 99.0078 165.92 100.631 162.675 99.3873Z" fill="#108E82"/>
<path d="M144.518 87.8458C148.239 89.2819 152.42 87.4206 153.856 83.6885C155.292 79.9564 153.44 75.7668 149.719 74.3308C145.998 72.8947 141.817 74.756 140.381 78.4881C138.945 82.2202 140.797 86.4098 144.518 87.8458Z" fill="#FFEEA6"/>
<path d="M160.733 130.525L139.542 135.967C137.797 136.415 136.015 135.376 135.561 133.647L134.197 128.451C133.743 126.722 134.789 124.957 136.534 124.509L157.725 119.067C159.47 118.619 161.252 119.657 161.706 121.386L163.07 126.583C163.524 128.312 162.477 130.077 160.733 130.525Z" fill="#108E82"/>
<path d="M149.574 131.116C151.571 130.594 152.77 128.56 152.251 126.572C151.732 124.585 149.691 123.396 147.693 123.918C145.695 124.439 144.497 126.473 145.016 128.461C145.535 130.449 147.576 131.637 149.574 131.116Z" fill="#FFEEA6"/>
<path d="M236.551 71.8666L255.266 32.5682L251.116 30.5673L232.401 69.8658L236.551 71.8666Z" fill="#EE442B"/>
<path d="M99.0434 289.21L64.5366 247.501L61.4812 250.031L95.988 291.74L99.0434 289.21Z" fill="#EE442B"/>
<path d="M21.9039 186.199L19.8316 189.305L91.9623 237.531L94.0345 234.425L21.9039 186.199Z" fill="#050C04"/>
<path d="M249.619 331.1H191.381C186.587 331.1 182.7 327.246 182.7 322.492V308.207C182.7 303.454 186.587 299.6 191.381 299.6H249.619C254.413 299.6 258.3 303.454 258.3 308.207V322.492C258.3 327.246 254.413 331.1 249.619 331.1Z" fill="#108E82"/>
<path d="M220.5 325.239C226.009 325.239 230.474 320.812 230.474 315.35C230.474 309.888 226.009 305.46 220.5 305.46C214.992 305.46 210.526 309.888 210.526 315.35C210.526 320.812 214.992 325.239 220.5 325.239Z" fill="#108E82"/>
</svg>
