<?xml version="1.0" encoding="UTF-8"?><svg version="1.1" id="Layer_1" xmlns="http://www.w3.org/2000/svg" xmlns:xlink="http://www.w3.org/1999/xlink" x="0px" y="0px" viewBox="0 0 2529 2168" style="enable-background:new 0 0 2529 2168;" xml:space="preserve" width="2529px" height="2168px">

<g id="Layer_2_1_">
	<g id="Layer_2-2">
		<g id="xmDplI.tif">
			<path d="M2469.3,787c-2.9-7.4,0.4-14-2.8-20.7c-2.9-6.1-8.2-11-7.7-19.3c0.7-10.9-18.5-34.2-29.7-35
				c-21.4-1.5-41.6-7.2-64.6-2.4c-31.2,6.5-50.2,25-70.4,45.7c-14.9,15.3-21.2,35.5-34,52.1c-5.6,7.3-17.1,11.6-16.9,23.3
				c0.2,9.2-4.6,16.8-9.8,23.5c-8.3,10.6-3.9,26.7-16.1,35.4c-0.7,0.5,0,4.1,1,5.5c4.1,5.5,2.5,10.9-0.2,16
				c-11.2,21.8-11.1,45.2-10.6,68.8c0.2,9.5,5.1,23.4,2.1,27.2c-11.6,14.8,0,26.1,2,38.5c1.3,8.1,10.7,10.3,16,9
				c6.4-1.6,16.7-1.6,18.2-10.9c3.7-22.5,19.6-36.2,34.6-50.7c10.5-10.2,20.2-21.3,31.3-30.7c12.4-10.4,25-21.7,39.5-28.3
				c13.6-6.2,23.9-16.2,35.4-24.4c5.7-4.1,13.7-1.6,18.5-10.8c7.2-14,20-25.6,31.3-36.3C2459.4,841,2464.2,814.2,2469.3,787z
				 M1453.3,291c1.4,12.4,8.8,20.4,20,24.7c4.4,1.7,9.2,0.7,11.9-4.4c13.8-26.4,30.8-50.7,47-75.6c6.6-10.2,13.4-21.5,21.6-28.8
				c13.9-12.4,21.6-29.1,34.5-41.8c8.9-8.8,12.5-22.2,24.7-28.4c3-1.5,2.6-25.7-0.2-27.6c-26.4-17.6-54.9-26.5-87-21.1
				c-3,0.5-4.3,1.4-5.3,4.4c-7.5,21.9-14.2,44.2-23.2,65.5c-13.2,31.4-14.7,66.7-33.2,96.2c-1.2,1.6-1.6,3.6-1.1,5.6
				c1.3,7,0.3,13.2-5.8,18.1C1453.3,280.8,1453.5,286,1453.3,291L1453.3,291z M1296.5,105.3c-2.2-6.8-4.7-16.3-8.7-25.2
				c-1.7-3.6-7.6,2.5-11.6-2.2c-6.1-7.2-8,4.6-14,4.1c-16.7-1.3-33.4-1.4-50.1,3.9c-9.3,3-12.2,13.4-10.7,15.2
				c7.6,9,11.6,17.3,9.7,29.8c-0.8,4.9,13.5,10.8,0,17.5c-0.6,0.3,1.2,6.7,2.7,9.8c8.9,17.6,11.3,37.5,19.7,54.9
				c4.9,10.2,2.3,19.8,3.4,29.4c2.2,18.5,13.7,31.6,22.6,46.3c4.2,6.7,12.3,10,20,8.1c7-1.7,6.2-11,6.2-17.9
				c-0.2-18.2,0.8-36.3,1.1-54.4c0.3-15.3,6.7-28.9,7.5-44.1C1295.7,156.3,1290.3,132,1296.5,105.3z" style="fill:#FEFEFE;"/>
			<path d="M1406.6,0.2c-1,6.5,5.8,10.4,7.8,8.1c12.2-13.8,26.6,7.9,39.2-3c1.3-1.1,14.4,8.8,11.5,15.2
				c-5,11.1-1.7,22.5-5.5,33.8c-9.1,27.2-13,56.2-22.1,83.4c-9.5,28.4-19.3,56.7-25.8,85.7c-4.9,22.1-20.5,40.1-21,63.3
				c-0.1,6.2-5,8.8-9.4,8.3c-8.4-1-16.5-2.9-22.5-10.8c-12.4-16.3-5.9-34.6-6.5-51.9c-0.3-8.1-0.5-15.8-1.9-24
				c-2-11.2,0.8-23.7,3.7-35c2.1-8.2,3.5-17.2,0.7-23.7c-6-13.9-3.5-28.5-3.4-41.8c0.3-35.9,5.1-71.7,8.2-107.6L1406.6,0.2z" style="fill:#E7646A;"/>
			<path d="M12.4,1905.4c-8.5-2,0-17.1-12.4-16.2v-9.4c7.8-7,9.9-21.5,24.6-19.5c11.5,1.6,22.8-2.6,34.5-0.5
				c4.3,0.8,3.1,2.6,3.6,4.3c1.5,5.8,3.1,9.8,10.2,4.7c5.5-3.9,10.1-0.4,15.2,3c16,10.6,32,21.6,49.1,30.3
				c14.1,7.2,28.1,15.4,44,18.7c7,1.4,5.6,11.3,13,12c14.2,21.4,32.8,39,50.4,57.4c9.1,9.5,18.6,19,29.5,26.1
				c24.2,15.6,49.4,29.7,77.3,46.3c-22.2-1.8-42.4,3.7-59-4.4c-16.8-8.2-35.1,1-52-10.5c-9.8-6.6-22.8-12.2-35.1-16.7
				c-23.8-8.7-42.5-25.7-63.7-38.6c-9.6-5.9-19.7-9.3-26.5-19.9c-3.6-5.6-10.6-14.6-15.4-15.4c-25.7-4.4-32.8-30.2-51.4-43.1
				C34.8,1904.5,26.2,1901.2,12.4,1905.4z M252.5,2049.8l-0.7,0.9l1.1,0.1L252.5,2049.8z" style="fill:#F3BB04;"/>
			<path d="M1149.6,924.5h0.2c0-0.1,0-0.2,0.1-0.3L1149.6,924.5z M1149.6,924.5h0.2c0-0.1,0-0.2,0.1-0.3L1149.6,924.5z
				 M1149.6,924.5h0.2c0-0.1,0-0.2,0.1-0.3L1149.6,924.5z M1149.6,924.5h0.2c0-0.1,0-0.2,0.1-0.3L1149.6,924.5z M1149.6,924.5h0.2
				c0-0.1,0-0.2,0.1-0.3L1149.6,924.5z M1852.6,1202.6c-0.3-0.7-0.5-1.4-0.7-2.1c-3.5-19.9-6.7-39.9-10.6-59.8
				c-1.7-8.6-2.6-19.1-8-25c-13-14.3-23.6-31.3-41.3-40.9c-2.8-1.5-1.2-2.6-1-4.4c0.7-11.8-6.3-15.6-16.8-15.3
				c-3.4,0.1-7.2,0.7-10.2-0.6c-5.6-2.4-23.4-8-29.7-8.9c-15.3-2-30.6-4.3-45.9-6.5c-2.7,1.6-6.7,2.5-7.8,4.8
				c-11,23.2-32.2,36.4-50,53.1c-9.3,8.7-26.5,5.5-31.6-5.9c-6.6-14.7-15.5-28.1-20.7-43.6c-7-20.8-5-42.5-8-63.7
				c-1.3-9-3.9-15.4-10.2-21c-27.3,0.9-55.1,1.3-81.6-2c-33.1-4.1-66.3-4.5-99.2-8.4c-26.9-3.1-55.3-0.2-80.9-7.5
				c-23.2-6.5-46.6-5.4-69.7-9.6c-20.3-3.8-41.7-3.7-62.6-6.8c-0.7-0.1-1.3-0.2-2-0.4s-1.3-0.4-1.9-0.6s-1.1-0.4-1.7-0.6
				c-0.4-0.1-0.8-0.3-1.2-0.4c-0.6-0.2-1.2-0.4-1.8-0.7c-0.4-0.1-0.7-0.2-1.1-0.3c-0.3-0.1-0.5-0.2-0.8-0.2c-1-0.3-2-0.6-3-0.7
				c-0.2,0-0.5-0.1-0.7-0.1c-0.4,0-0.8-0.1-1.2-0.1c-0.3,0-0.5,0-0.8,0c0,0.1,0,0.2-0.1,0.2s-0.1,0.3-0.2,0.5s-0.1,0.5-0.2,0.7
				s-0.1,0.4-0.2,0.6c-0.1,0.3-0.3,0.6-0.4,0.8s-0.2,0.4-0.3,0.5c0,0.1-0.1,0.1-0.2,0.2c-0.1,0.2-0.3,0.4-0.5,0.6
				c-0.5,0.4-1,0.7-1.5,0.9c-0.3,0.1-0.6,0.2-0.8,0.2c-2.8,0.4-6.3-1.3-9.2-1.1c-11.9,1-27.7,2.4-35-1c-14.7-7-30.1,8.8-42-5
				c-7.9,10-16.8,0.1-25.2,1.3c-2.2,0-4.3,0-6.4-0.1c-3.2-0.4-6.3-0.8-9.5-1.2c-4,2.4-8.5,2.8-11.6-0.4c-5.9-6-10-4.1-17.3-1.1
				c-6.7,2.7-16.3-1.6-24.5-2.8c-10,14.1-21.8,3-32.8,2.3c-5.2,0.2-9.2,2.3-10.5,7.6c-1.4,5.6-5.6,5.3-9.8,5.2
				c0.6,8-0.7,16-6.7,21.5c-9.3,8.4-5.8,22.7-15.3,30.6c-5.2,5.1-5.5,11.8-6.3,18.5c-1.1,9-5.4,13.3-14.4,7.1
				c-0.8-0.5-1.2-2.5-1.7-2.4c-31.9,4.9-36.4-22.8-49-40.9c-1-1.2-2.1-2.2-3.3-3.2c-15.4,1-28.9-7.6-45.7-5.8
				c-16.5,1.8-32.9,4-49.4,6.2c-12.5,1.7-12.8,16.8-24.3,17.8c-10.8,0.9-13.8,7.5-12.7,17.2c0.1,0.5-0.9,1.1-1.6,1.9
				c-3-2.8,0.2-8.9-6.2-10.1c-1.6,4.4-0.6,11.1-10.2,8.4c-7-1.9-12.8,4.5-15.8,12.1c-2.3,5.6-4.6,11.1-8.5,16.2
				c-15.6,20.3-29.7,41.3-39.2,65.7c-3.6,9.3,4.8,16.3-1.3,24.9c-8.2,11.6-7,25.1,0.1,38.6c0.8,1.4,1.7,2.8-0.2,3.7
				c-13.4,5.9-7.3,16.7-5.6,25.3c4.2,21.4,9,42.4,20.7,61.8c12.3,20.5,28.1,38.6,43.7,55.6c9.9,10.8,27.4,18.6,42.3,26.4
				c6.4,3.4,10.2-6.3,15.5-0.9c16.4,16.7,37.5,15.5,58.5,16.4c11.1,0.5,13.4-4.2,12.2-14.4c9.2,13.6,20.6,8.7,29.9,4.1
				c7.4-3.6,10.1-3.6,13.2,3.9c5.2,12.2,0.3,28.6,15.1,36.9c0.4,0.2,0.5,2.3,0,2.9c-13.4,18,5,32.2,7,48.3c1.8,14.3,10,28.8,12.9,44
				c0.8,4.1,1.5,7.7,4.9,11c19.1,18.3,33.8,41.2,55,57.2c14.4,10.8,28.2,22.9,45,30.2c27.3,11.8,54.2,24.7,82.1,34.7
				c16.1,5.8,32.5,13.1,51.1,9.1c10.8-2.4,23.7,9.7,21.4,18.1c-4.5,16.4-4.2,33.3-5.7,50.1c-1,11.8-1.2,25.8-11.6,35.2
				c-8.4,7.6-21.3,8.5-28.2,18.5c0.8,6.9-5.8,9.1-8.9,13.4c-3.4,4.7-12.5,1.8-14,11.1c-2.9,17.9-7.4,34.7-3.9,53.9
				c5.7,31.4,30.4,44.1,51.6,60.7c2,1.6,6,0.8,9.1,1.1c9.9,0.9,19.2,1,29.2,6c11.2,5.6,25.8,2.8,38.4-0.1c10.8-2.5,21.5-2.6,32-4.3
				c8.3-1.3,15.9-7.8,23.6-12.2c1.7-0.9,2.3-4.1,3.9-4.6c32.5-10.6,37.9-41.1,49.4-67c2.8-6.2-6-23.2-12.7-25.9
				c-4.3-1.8-4-5.4-2.5-7.4c5.7-7.5-0.4-12.9-2.3-19.1c-9.2-6.8-14.7-19-27.2-20.9c-10.4-1.5-10-7.2-9.1-15.2
				c2-18.8,12-35.8,10.5-55.4c-1.2-17,4.9-21.5,22.2-20.2c6.2,0.4,11.9,3.4,18.4,2.1c26.5-5.4,53.2-10,79.7-15.5
				c25.3-5.3,48.8-15.4,71.8-27.1c17.8-9.1,31-24.3,48.8-33c19.1-9.3,23.6-29.8,33.8-45.6c6.9-10.5,10.5-23.4,18.7-33.7
				c5.8-7.3,9.5-15.4,6.5-25c-0.6-1.9-2.7-4.9-1-5.4c14-4,14.2-17,19.6-27.2c5.9-10.9,11.9-21,10.9-34.7c5.3,2,9.4,3.8,13.7,5.2
				c21,7,40.4,20.7,64.9,11.2c4.8-1.8,14.1-10.1,19.7,1.3c0.8-1.1,2.5-2.2,2.3-3.1c-0.5-4.2,1.7-7,4.6-3.8
				c7.4,8.1,13.6,1.1,20.5-0.1c25.9-4.6,47.1-19.1,69.1-31.8c7.1-4,17.5-5,15.9-17.4c-0.2-2,3.2-2.8,6.5-3.4
				c19-3.5,23.7-11.6,19-30.3c-0.9-3.5,1.5-3.3,2.6-3.6c15.6-4.7,20.6-17.1,23.7-31.3c3.7-17.3,9.6-34.1,8-52.2
				C1845.7,1217.2,1839.1,1206.8,1852.6,1202.6L1852.6,1202.6z M827.8,1129.1c-8.7,11.6-15.2,20.8-17.9,35.2
				c-2.8,14.8,3.3,24.9,11.4,35.1c8.9,11.1,8.1,13.4-6.1,16.4c-25.8,5.5-38.2-3.8-37.2-29.5c-1.7-12.2,1.4-26.6,5.8-38.4
				c5.6-15,5-36.4,26.5-42.1c2.4-0.7,3.2-1.8,3-4.3c-0.9-16.7-18-32.9-35.9-34.3c-5.1-0.4-10.9-0.7-15.1-3.2
				c-14.4-8.5-23.8,4.4-35.5,7.2c-2.4,0.6-3.7,2.7-2.8,4.7c4.1,8.7-2.4,12.2-8.2,13.2c-7.5,1.3-14.4-3.8-18.1-9.7
				c-3-4.7-3.1-11.2,1.4-17.4c23.8-33.3,48.7-41,87-25.8c5.8,2.3,11.9,1,17.9,4.4c14.2,8.1,21,21.1,30.5,33.5
				C852.4,1097.3,837.5,1116.2,827.8,1129.1z M1264.3,1091.7c2.7-5.1,7.8-8.2,1.8-14.1c-1.1-1.1-1.3-4.6-0.4-5.8
				c11.1-14.1,7-33.1,23.4-48.2c21.1-19.3,44.3-31.3,68.1-44.5c11.8-6.5,9.1,5.9,14.6,7.7c11.3,3.7,14.9-13.4,19.8-8.2
				c13.6,14.5,31.7,4.3,46.5,11.3c4.8,2.3,8.8,4.3,11.8,8.2c9,11.5,17,23.6,27,34.5c12.9,14.1,11.4,33.1,13.2,52.1
				c-6,12.1,5.2,26.8-2.4,40.5c-5,9.1-4.2,20.9-17.4,25.5c-7.4,2.6-4.9,14-10.1,21.2c-17.3,23.8-42.3,30.7-68.2,36.6
				c-16.1,3.6-32.3,5.5-47.3-4.7c-2.6-1.8-7.1-2-10.4-1.4c-16.4,3.1-25-8.3-34.4-18.1c-14.5-15.2-24.6-33.7-35.7-51.1
				C1256.6,1121.1,1257.3,1105.1,1264.3,1091.7L1264.3,1091.7z M977.7,1051.2c-3.2-2.8-4-6.2-1.6-9.7c10.2-14.6,8.5-32.9,24-48
				c22.2-21.6,47.6-33.5,74.1-45.7c0.7,0.7,1.2,1.4,1.8,2.2l0,0c0.5-0.2,1-0.5,1.4-0.7l0,0c0.7-0.3,1.4-0.6,2.2-0.8
				c0.7-0.2,1.4-0.4,2.2-0.6c0.5-0.1,1-0.2,1.4-0.3c0.7-0.1,1.3-0.2,1.9-0.2l0.7-0.1c3.4-0.1,6.8,0.2,10.2,1.1
				c0.6,0.1,1.2,0.3,1.7,0.5c0.4,0.1,0.7,0.2,1.1,0.3c0.7,0.2,1.3,0.4,1.9,0.6c1.6,0.5,3.2,1.1,4.8,1.8c2.7,4.7,7.6,6.1,12.1,5.6
				c31.1-3.7,46,17.4,63.1,38.1c17.4,21.1,18.4,44.1,18.9,69.2c0.3,14.6,1.4,28.9-5.8,41.4c-8.2,14.3-19,27.2-29.1,40.4
				c-3.3,4.4-9.3,6.8-10.5,12.9c-1.4,7.7-7.1,9.8-13.7,10.3c-11.8,0.8-22.6,5.4-33.7,9c-19.8,6.4-38.9-0.4-58.5-2.3
				c-22.5-2.1-33.3-18.2-48.8-29.1c-5.8-4.1,1.9-11.3-0.4-12.3c-10.4-4.8-12.9-14.5-18.7-22.7c-13.6-18.9-15.5-35.7-1.5-54.3
				C981.2,1055,979.8,1053,977.7,1051.2z M1506.1,1359.8c-0.8,5.2-1.5,10.4-2.3,15.5c0.5,9.2-2.9,17.7-8.2,24.4
				c-5.8,7.4-9,13.6-10.1,23.9c-1.3,11.6-11.3,23.9-20.7,32.3c-5.6,5-10.9,9.4-15,15.8c-18.1,28.2-43,48.2-74.1,60.9
				c-12.4,5-22.9,14.8-36.3,17.4c-21.8,4.2-42.2,12.4-65.9,12.3c-21.2-0.1-43.7-4.2-65.2,3c-5.6,1.9-12.6,1.2-18.6-0.2
				c-17.3-4-34.5-5.2-52.2-5.5c-7.3-0.2-19.8-2.5-22.7-14.5c-0.3-1.1-1.9-1.9-2.9-2.8c-5.1,11.4-10,0.2-14.8,0.3
				c-27.2,0.4-40.9-2.8-61.3-18.2c-3-2.2-5.6-1.6-8.7-1.2c-6.1,0.8-13.4-1.3-15.6-5.4c-11.6-22-39.7-24.8-51.4-46
				c-9.8-17.7-27.9-29.3-34-50.2c-5-17.2-19.4-30.5-24.3-48.5c-1.3-4.6-4.1-8.1-0.5-12.4c4.4-5.2,1.2-10.1-1.2-14.1
				c-16.8-28.4-10-55.1,5.4-81.1c1.7-2.9,0.3-4.5,0.8-6.5c2-8.1-2.6-20.5,12.6-20.8c2-0.1,3.2-1,3.8-3.7
				c4.5-22.8,18.5-33.7,40.2-43.6c15.8-7.3,30.2-3,44.4-7.6c4.2-1.3,10.6-1.7,11.4,1.8c3.3,14.4,14.7,11.8,24.4,13.3
				c11.6,1.8,21.4,8.6,29.7,15.4c18.2,14.9,38.2,23.6,60.6,31.1c34.7,11.7,70,14.8,105.5,14.3c37.7-0.5,76.5,4.2,111.3-19.7
				c10.2-7,26.2-12.9,41.5-7c2.1,0.8,5.8,0.4,7.4-1c11.7-10.7,24.8-5.8,36.8-2.5c20.3,5.5,37.4,16.7,47.2,36.2
				c4.1,8.1,17,14.4,7,26.6c-1.7,2,0.2,4.2,2.5,4.3c11.6,0.7,10.5,8.3,8.9,16C1497.6,1328.9,1508.4,1343.6,1506.1,1359.8z
				 M1744.9,1134.6c-10-0.1-14.8,14.4-28.6,6.6c-15.8-8.9-52.1,8.1-60.4,24.4c-2.8,5.6,1.4,8.6,4.1,10.3
				c18.6,11.4,23.7,30.6,29.6,49.5c1.7,5.4,1.7,10.8-1.7,14.9c-9.1,11.4-8.8,29.9-28.7,34c-5,1-10.8,11.2-18.4,14.2
				c-10.2,4-16.6,2.3-14.3-11.1c-5.4-16.5,12.9-17.7,19.5-25.9c14.7-18.3,17.7-28.2,1.2-44.5c-8.2-8.1-14.1-17.6-20.6-26.8
				s-5.8-19.6,0.2-27.7c14.7-19.6,31.8-38.8,58-39.2c15.4-0.2,30.6-7.8,46.7-0.9c7.1,3,9.9,8.7,14.6,13
				C1749.3,1128.1,1747.6,1134.6,1744.9,1134.6L1744.9,1134.6z M1149.6,924.5h0.2c0-0.1,0-0.2,0.1-0.3L1149.6,924.5z M1149.6,924.5
				h0.2c0-0.1,0-0.2,0.1-0.3L1149.6,924.5z M1149.6,924.5h0.2c0-0.1,0-0.2,0.1-0.3L1149.6,924.5z M1149.6,924.5h0.2
				c0-0.1,0-0.2,0.1-0.3L1149.6,924.5z M1149.6,924.5h0.2c0-0.1,0-0.2,0.1-0.3L1149.6,924.5z" style="fill:#F3BB04;"/>
			<path d="M2338.1,1478.6c1-9.2,3.8-20.2,1.3-29.8c-4.4-17.2-3-34.1-0.9-51.1c0.8-6-0.8-15.1-2.8-15.8
				c-11.3-4-8.5-14.5-12.1-21.9c-17.1,26.1-16.3,20.8-45.4,18.2c-12.8-1.1-25.1,1.6-37.8,1.1c-41.3-1.4-82.6-1.5-123.9,0
				c-46.2,1.7-92.5-4.1-138.4,0.1c-26.5,2.4-52.7-0.7-79.1,0.9c-19.4,1.2-39.4-0.2-59.3,0.2c-9.4,0.2-16-6.2-10.7-18.3
				c6.8-15.4,22.9-21.6,45.5-19.2c18,1.9,36.5,2.4,54.4,0.2c9-1.1,17.4-0.1,25.6,0.9c22.9,2.8,45.7-3.7,68.5,0.1
				c21.2,3.6,42.6,1.1,63.8,0.7c14.4-0.3,29.4,2.8,42.4,0.6c13.9-2.4,29.1,12.7,41-3.2c14.6,7.4,30.9-2.6,45.2,4.3
				c3.7,1.8,4.2,1.7,6.6-1.7c3.7-5.2,10.5-4.5,15.9-3.5c22.5,4.1,45,3.9,67.7,2.2c-0.2-2.5,0.6-6.1-0.8-7.5
				c-15.1-14.6-14.2-41-36.9-50.1c-1.4-0.6-2.7-3.3-2.9-5.1c-0.8-13.8-3.4-28.3-2.1-41.4c3.5-36.4,0.9-72.5,0.2-108.8
				c-0.1-2.6,1.4-5.9-2.6-5.3c-24,3.5-48-2.9-71.8,0.2c-6.8,0.9-11.6,4.1-12.5,14.2c-1.4,14.4,3.2,29.5-3.2,42.9
				c-11.1,0.8-8.5-13.1-15.7-15c-27.4-7.3-33.6-38.3-58-50c-11.3-5.4-15.7-2.8-22.6,3.7c-4.9,4.5-9,9.9-13.7,14.5
				c-9.1,8.9-20.6,13.2-30.4,20.6c-18.7,14.2-35.2,30.9-53.5,45.2c-31.1,24.4-58.3,52.6-86.7,79.8c-6.6,6.3-8.2,14.9-15.3,20
				c-20.4,14.5-39.8,29.8-54.5,50.7c-6.6,9.3-8.6,17.3-2.9,26.8c1.3,2.2,3.1,3.7,1.8,6.8c-8.7,21.7-3.1,44.8-2.7,66.6
				c0.8,41.8,0,83.7,0.7,125.6c0.2,12.6,4,25.9-2.4,38.2c8.5,11.3,3.7,24.6,4,36.5c0.5,24.9-0.5,49.8,0.2,74.8
				c0.6,21.1,0.1,42.3-0.7,63.4c0,1,0,2.1,0.1,3.1c0.1,0.7,0.1,1.4,0.2,2.1c0.2,1.3,0.5,2.7,0.9,3.9c0.2,0.7,0.4,1.3,0.6,1.9
				s0.4,1.2,0.7,1.8c2.8,6.7,7,12.6,8.7,19.5c0.2,0.7,0.3,1.4,0.5,2.2c4.8,4.9,8.9,3.2,14.5,0.4c43-21.7,87.3-32.2,135.2-15.7
				c20,7,40.2,13.9,61.4,17.3c19.8,3.2,39.4,6,59.1,0.6c8-2.2,15.1,2.3,23,2.2c49.6-0.3,93-19.9,135.1-43.1
				c19-10.5,39.3-18.6,56.2-33.2c11-9.5,21.1-18.2,21.2-33.9c-8.9-23.8-4.1-48.1-1.8-72.1c2.5-25.2-3.1-50.3,1.3-75.4
				c-1.9-10.9-0.9-21.4,1.4-32.4C2343.4,1519.9,2335.9,1499.5,2338.1,1478.6z M2099,1569.9c-1.3,17.8-10.1,22.9-28.3,18
				c-9.6,2.7-19.5,8.2-28.3-1.8c-4.2-0.5-8.1-0.6-8.1-6.7c-0.2-25.5-0.8-51-1.2-76.4c-0.2-13.3,7.1-20.7,20.8-20.4
				c5.1,0.1,10.3-0.6,15.2-2.1c19.7-6,32.4,2.4,32.6,22.8C2101.9,1525.5,2100.6,1547.8,2099,1569.9z M2271.3,1569.9
				c-1.3,17.8-10.1,22.9-28.3,18c-9.6,2.7-19.5,8.2-28.4-1.8c-4.2-0.5-8.1-0.6-8.1-6.7c-0.2-25.5-0.8-51-1.2-76.4
				c-0.2-13.3,7.1-20.7,20.8-20.4c5.1,0.1,10.3-0.6,15.2-2.1c19.7-6,32.4,2.4,32.6,22.8C2274.1,1525.5,2272.9,1547.8,2271.3,1569.9
				L2271.3,1569.9z" style="fill:#E56065;"/>
			<path d="M1699.4,1984.1c-9.7,7.9-9.5,23.6-21.9,27.9c-7.7,2.7-10.3,7.5-12.3,14.1c-1.7,5.4-2.5,10.7-11.1,9.8
				c-9.4-0.9-7.4,10.9-14.6,15.7c-18.2,12.2-31.4,32.5-50.2,43.4c-26.2,15.2-51.4,32.4-81.3,41.9c-35.5,11.3-71.1,8.7-106.8,9.1
				s-71.5-0.5-107.2,0.2c-30.9,0.6-61.8-0.5-92.7-0.1c-38,0.6-76-0.8-114,1.5c-29.7,1.8-59.9-1.6-89.9-1.1
				c-48.4,0.8-96.9,0.2-145.3,0.1c-28.5,0-56.9-0.3-85.3-0.3c-17-0.1-34-0.9-51,0.5c-11.7,0.9-16.2-0.9-11.5-13.2
				c1.2-3.2,0.1-7.2,0.1-10.8c6.2-7.7,11.3-16.6,18.8-22.7c18.8-15.4,42.1-25.5,53.7-48.8c17.5-12.1,25,5.7,35.2,12.8
				c9.7,6.6,17,6,19.9-5.7c5.6-22.9,18.5-42.4,27.6-63.6c7.7-17.8,16.3-35.5,22.3-54.2c5.5-17.4,15.3-33.6,19.4-51.2
				s19.6-28,23.8-44.9c0.4-1.7,2.4-3.4,4.1-4.4c12.5-7.2,11.7-9,21.9-19.4c14.7-14.9,28.3-31.4,46.3-42.8
				c9.8-6.1,17.9-14.5,26.7-21.2c9.4-7.1,22.5-13.9,34.5-15.1c7.9-0.8,12.7-10.3,21.1-5.8c0.8,6.9-5.8,9.1-8.9,13.4
				c-3.4,4.7-12.5,1.8-14,11.1c-2.9,17.9-7.4,34.7-3.9,53.9c5.7,31.4,30.4,44.1,51.6,60.7c2,1.6,6,0.8,9.1,1.1
				c9.9,0.9,19.2,1,29.2,6c11.2,5.6,25.8,2.8,38.4-0.1c10.8-2.5,21.5-2.6,32-4.3c8.3-1.3,15.9-7.8,23.6-12.2
				c1.7-0.9,2.3-4.1,3.9-4.6c32.5-10.6,37.9-41.1,49.4-67c2.8-6.2-6-23.2-12.7-25.9c-4.3-1.8-4-5.4-2.5-7.4
				c5.7-7.5-0.4-12.9-2.3-19.1c8.4,3,17-0.7,25.9,1.8c10.4,2.8,15.5,10.8,23.2,16.2c11.6,8.2,21.1,18.9,34.6,24.9
				c19.1,8.5,23.7,29.9,35.6,45c18.6,23.4,38.9,45.8,51.4,73.5c4.8,10.6,9.7,22,11.4,32.8c3,18.9,16.8,32.8,18.7,52.4
				c1.2,12.9,16.2,2.4,19.5,0.5c18-10.2,37.9-16.4,56.8-23.4c27.8-10.2,48.8-28.7,71.8-45.3c13.6-9.8,28-6.9,42.3-1.8
				c-2.4,4.2-3.8,7.8-1,13c8.3,15.2,18.1,29,32.1,39.5C1693.2,1976.4,1703,1981.2,1699.4,1984.1z" style="fill:#173948;"/>
			<path d="M836.6,1825.4c-2.5,10-12.5,16.2-11.3,27.9c0.8,7.3,5.2,17.1-8,20.7c-1.8,0.5-0.5,13.5,0.5,19.7
				c1.1,6.7-1.7,9.8-3.8,14.6c-15.5,35.3-42.5,62.6-65.4,92.7c-3,4-3.3,5.6-0.2,8.7c10.9,10.4,16.3,25.7,30.1,33.8
				c3.5,2-1.2,5.2-1.8,8c-11.6,23.3-34.9,33.5-53.7,48.8c-7.5,6.1-12.6,15-18.8,22.7c-20.4-13.9-39.7-28.8-51-51.9
				c-1.9-3.8-5.1-2.5-10.3-1.5c-31.7,6.3-55.9,31.5-89.2,33.3c-9.5,0.5-18.1,11.1-29,3.4c-3,4.4-5.8,8.9-11.5,10.4
				c-16.8,4.5-33.4,9.7-50.3,13.3c-7.4,1.6-11.8,9.3-21,7.8c-3.3-0.5-7.2,2-10.6-1.6c-2.5-2.6-4.9-2.9-7.9,0
				c-19.6,19.3-45.8,14.8-69.5,18.9c-18.4,3.1-37.7-0.6-55.5,7c-3.2,1.4-5.8,0.2-8.5,0.3c-19.5,1-39-0.9-58.6,4.5
				c-7.1,1.9-18.5,0.9-28.4-2.9c-7.3-2.8-16.9-8.8-27.3-2.9c-10.3,5.9-31.2-9.4-34.5-18.1c-1.3-3.5-0.9-7.1-6.3-6.3
				c-2.4,0.3-3.3-2.2-2.9-4.4c1.9-10.1,1.4-11.6-7.8-17.6c15.4-0.9,15.8-14.5,23.1-22c13.5-14,32.8-15.8,49.9-22.1
				c18.5,11.5,43.4-3.7,60.5,15.3c8.5,9.4,21.3,4.4,32,6.1c26.2,4.2,52.7,6,79.2,4c10.3-0.8,11.4-15.2,21.8-17.5
				c1.1-0.2-0.4-5.9-4.2-6.7c-3.5-0.7-7.1-1-11.2-1.5c4.4-6,0.7-20.2,15.7-13.5c1.5,0.7,4.1,1.1,4-2.6c-0.4-18.3,12.7-13.6,19.9-8.9
				c14,9.1,20.4-0.1,27.7-8.2c12.3-13.8,10.8-17.9-7.5-21.1c-27.4-4.8-50.9-17.3-73.8-32.6c-17.7-11.9-33-25.9-47.2-41.4
				c-12.9-14.2-23.7-30.2-36.8-44.3c-7.2-7.7-6.3-21.6-17.3-27.9c-2.8-1.6-0.2-4,1-4.9c8.9-6.4,7.3-11.3-0.5-17.9
				c-4.8-4.1-5.2-11.9-2.8-17.7c3.2-8.1,0.8-15.1-0.8-22.8c-1.8-9.2-6.3-21.8-2.2-27.8c17.2-24.7,24.8-55.2,48.4-76
				c21.5-19,32.5-49.1,62.6-59.1c6.5-2.2,0.4-9.1,4.9-11.7c5.3-3.1,18.1-0.3,10.5-13.8c-0.3-0.6,3.5-6.2,7.9-6
				c2.4,0.1,7.2,0.2,4.8-2.8c-6.3-7.8,2.5-13.6,1.2-20.4c7.6-3.5,13.2-11.6,23-10.1c1.8,1,3.5,2.1,5.2,3.1
				c4.1-7.5,9.6-11.9,18.6-7.9c3.3-1,6.5-1.9,9.2,1.2c13.6-3.6,26.7-3.8,38.9,4.5l0.9-0.2l0.7,0.6c8.5,2.2,15.1,7.5,21.8,12.8
				c8.8,13,9,27.8,8.5,42.7c-5.3,1.8-11.6-0.2-12.8,9.7c-1,8.3-9.5-0.2-14.2,2.1c-2.7,6.1-5.2,14.2-11.6,15.3
				c-19.4,3.3-24.2,22.4-37.4,32.2c-11.3,5.9-16.4,17.4-24.4,26.4c-22.1,24.6-40.4,52.7-49.7,83.2c-6.6,21.5-5,49,10.5,69.8
				c9.6,12.9,21.6,24.4,34.2,34.5c13.9,11.2,28.6,21.3,46.9,24.6c26.9,4.9,54.2,7.3,81.6,7.2c23.3-0.2,46.2,0.2,69.4-6.2
				c9.1-2.5,12.5-10.8,21.3-11.6c27.3-2.5,35.1-28.9,51.6-44.4c7-6.6,9.4-18,12.4-28.7c5.5-20,11.6-39.1,11.1-60.4
				c-0.5-18.9,4.7-39.2-8.1-54.9c-5.9-7.2-4.9-19.3-14.2-22.1c-8.7-2.6-12.2-8.2-15.6-15.1c-0.7-7.9,3.8-13,8.5-18.6
				c12.9-15.1,22.9-31.9,26.7-51.8c4.6-8.9,3.1-20.7,12.8-27.2c9.3,4.3,23.8,6.3,26.9,13.3c6.8,15.6,22.6,16.2,32.4,25.8
				c14.5,14.3,29.8,27.7,35.6,48.3c2,7.1,10.4,9.2,12.5,17.3c5.1,19.5,11.6,38.8,10.6,59.1C837.5,1784.1,841.8,1804.8,836.6,1825.4z
				" style="fill:#F3BB04;"/>
			<path d="M1694.6,1970.7c-14-10.5-23.8-24.3-32.1-39.6c-2.8-5.1-1.5-8.8,1-12.9c4.5-3.5,9.2-6.6,13.3-10.5
				c9.2-8.6,16.1-16,13.8-32.2c-1.6-11.8-5.7-30.2,9.9-40.6c1.1-0.7,1.8-2.7,1.9-4.1c1.5-23.3,18.9-36.2,33.3-51
				c19.4-20.1,34.8-43.4,47.8-67.6c7.6-14.1,7.4-32.3,13.3-47.6c4.7-12.2,0.2-25.4,7.2-37.3c3.5-6,6.7-9.9,13.3-11
				c8.5,11.3,3.8,24.5,4,36.5c0.5,24.9-0.5,49.8,0.2,74.8c0.6,21,0.1,42.3-0.6,63.4c-0.5,14.1,9.8,22.5,11.7,34.5
				c1.2,9.6,10.7,15.2,11.9,25.1c0.4,3.1,6.3,4,7.3,0.5c4.6-16,18.1-12.6,29.3-14.9c12.5-2.7,24.8-8.8,37.3-8.9
				c31.7-0.1,64,2,94.1,10.8c35.8,10.4,70.6,17.2,108.1,12.1c8.7-1.2,19.9,0,29.9,0.4c8.4,0.3,12.6-7.9,22.6-9.1
				c21.6-2.6,43.1-10.2,63.6-19.8c18.9-8.8,36.8-19.6,56.6-27.1c16.9-6.4,30.3-21.8,46.4-31.2c19.8-11.6,35.5-28.1,50-44.5
				c16.1-18.2,27.1-41,40.1-62c2.5-4.1,1.8-9.1,10.4-6.4c8.3,2.6,26.6-18.8,24.7-27.6c-3.2-14.7-14-5-21.6-5.7c-1-0.1-2-0.3-3.1-0.5
				c13.3-21.8,34.8-11.1,53-13.7c5-0.7,3.6,1.8,3.5,3.8c-0.1,3.2,0.4,8.8,1.7,8.5c13.4-3.3,10.6,12.4,18.3,14.9
				c5.4,1.7,7.4,3.8,3.4,8.4c-3,3.4-0.1,6,1.1,8.2c13,21.8,6.6,44.8,3.6,67.3c-1.6,12-14.7,16.3-20.3,26.9
				c-9,17.1-21.5,31.7-37,45.1c-10.2,8.8-17.6,18.9-31.8,20.8c1.9,14.9-13.4,15.3-19.2,23.2c-8.3,11.4-19.8,15.4-31.6,17.7
				c-10.3,2-14.4,10.6-21.9,15.3c-31.5,19.7-63.8,38-98.5,50.9c-24.8,9.2-47.8,22.6-73.8,28.6c-29.3,6.7-58.3,14.3-88.2,18.4
				c-16.1,2.2-31.9,7.1-47.9,10.7c-12.7,2.8-25.4,5.3-38.1,8.2c-3,0.6-5.9,1.6-8.6,3.2c-12.9,8.3-27.3,5.5-41.2,5.8
				c-2.4,0-5.3-2.7-7.1-2c-26.4,9.9-54.1,6.8-80.9,5.7c-27.8-1.2-55.9-0.7-83.3-4.2c-16.2-2.1-31.7-11.5-46.8-19.2
				c-6.9-3.6-15.6-1.9-21.7-10.5c-3.1-4.4-15.1-0.2-21.6,6.2C1702.3,1967.4,1698.1,1968.7,1694.6,1970.7z" style="fill:#F3BB04;"/>
			<path d="M707.8,1626.8c-3.8,19.9-13.8,36.7-26.7,51.8c-4.8,5.6-9.3,10.7-8.5,18.6c-11,9.1-20.8,21.3-33.4,26.6
				c-16,6.8-27.8,22.5-49,20.5c-6.8-0.7-18.2-1.8-26.2,3.6c-9.4,6.4-19.6,2.7-28.2,0.2c-11.6-3.5-22.9-8.5-34.7-11.8
				c-14.7-4.1-30.4-5.7-38.3-23.2c-3-6.5-8.4-14.8-16.9-18.1c13.2-9.8,18-28.8,37.4-32.2c6.3-1.1,8.9-9.2,11.6-15.3
				c4.7-2.3,13.2,6.2,14.2-2.1c1.2-9.8,7.5-7.9,12.8-9.7c5.7,23.5,22.4,37.2,38.3,29.2c10.1-5.2,20.7-9.1,31.8-11.7
				c15.1-3.4,21.5-15.9,29.4-25.7c5-6.1,9.3-18-0.4-26.7c-1.8-21.9-11-37.5-34.4-41.4c-3.5-0.6-6.9-2-10.3-3.2
				c-15.5-5.4-35,0.2-45,13.2c-16,0.2-10.6,16.6-17.8,23.6c-6.7-5.3-13.4-10.6-21.8-12.8l-0.7-0.6l-0.9,0.2
				c-12.1-8.4-25.3-8.1-38.9-4.5c-2.7-3.1-6-2.2-9.2-1.2c-9-4-14.5,0.4-18.6,7.9c-1.7-1-3.5-2.1-5.2-3.1c0.9-9.5,5.5-17.2,11.1-24.6
				c4.1-0.3,6.8-1.3,9.6-5.6c8.9-13.8,15.9-32.2,33.2-35.5s9.1-15.8,12.5-23.5s-6.7-8.5-11-12.1c13-15.5-4.8-25.2-9.3-35.2
				c-9.5-21-13.4-43.6-22.9-64.3c-1.9-4.2-3.8-8.5-8.8-4.7c-12.7,9.7-29,10.8-42.4,19c-18.9,11.5-31.9,7.3-36.5-13.8
				c-4-18.3-10.2-37.1-4.9-56.4c4.7,0.6,8.3,2.1,14.2,0.3c13.4-4.1,24.3-13,37.5-17.1c20.7-6.4,20.7-6.4,11.3-27.1
				c-1.1-2.4-2.5-4.6-3.5-7c-1.7-4-3.8-4.9-8.4-3.4c-13.7,4.4-27.7,8.1-39.2,17.4c-6.3,4.3-15.3,1.2-21,8.2c-2.5,3.1-6.5,1-9-2.5
				c-1.3-1.8-1.8-6.3-4.9-4.7c-23.1,12.2-15.4-11.9-17.8-17.7c-7.2-17.4-10.3-36.5-24.8-50.7c4.3-3,8.1-5.7,11.9-8.3
				c2.6-0.1,6.7,0.7,7.5-0.5c13.2-21.7,36.7-22.6,57.5-28.8c4-1.2,5.4-4.9,3-6.9c-8.5-7.1-8-20.6-18.6-25.9
				c3-9.1,16.9-11.5,14.7-23.8c2.9,0.2,5.9,0.5,8.8,0.8c3.6,0.6,8.3,1.7,10.5-1.2c9-11.9,23.5-13,35.6-17.5
				c15.2-5.7,32.3-18.1,48,0.1c7.7,9.1,16.9,18.2,19.3,29.8c4.9,23.1,19.7,41.7,25.2,65.1c6.4,27.3,14.9,54.9,30,80.1
				c6.3,10.6,19,22.6,10,38.5c-0.5,0.8,0.3,3.6,1.1,3.9c20.6,8,18.5,29.3,24.4,44.9c5.3,13.9,10.3,28.3,17.2,41.3
				c9.7,18.3,22.6,34.9,17.2,57.5c-1.8,7.6,4.1,5.6,7.7,5.9c34.2,3,61.2,16.1,72.4,51.3c0.9,2.7,2.2,4.5,5,5.4
				c8.2,2.6,10,8.8,10.8,16.9c1.3,12.2,4.9,24.1,6.6,36.3c1.2,8.5,2.5,16.6-5,24.8C700.3,1610.8,696.9,1622.2,707.8,1626.8z" style="fill:#173948;"/>
			<path d="M2469.3,787c-5,27.2-9.9,54-32.7,75.7c-11.3,10.7-24.1,22.3-31.3,36.3c-4.8,9.2-12.7,6.7-18.5,10.8
				c-11.5,8.2-21.8,18.2-35.4,24.4c-14.5,6.6-27.1,17.8-39.5,28.3c-11.1,9.4-20.8,20.5-31.3,30.7c-15,14.5-30.9,28.2-34.6,50.7
				c-1.6,9.3-11.9,9.3-18.2,10.9c-5.3,1.3-14.7-0.9-16-9c-2-12.4-13.6-23.7-2-38.5c2.9-3.8-1.9-17.7-2.1-27.2
				c-0.5-23.6-0.6-47,10.6-68.8c2.6-5.2,4.2-10.5,0.2-16c-1.1-1.4-1.7-5-1-5.5c12.1-8.7,7.7-24.8,16.1-35.4
				c5.2-6.6,10-14.2,9.8-23.5c-0.2-11.8,11.3-16,16.9-23.3c12.8-16.6,19.1-36.8,34-52.1c20.2-20.7,39.3-39.2,70.4-45.7
				c23-4.8,43.3,0.8,64.6,2.4c11.2,0.8,30.4,24.1,29.7,35c-0.5,8.3,4.8,13.2,7.7,19.3C2469.6,773,2466.4,779.6,2469.3,787z" style="fill:#173948;"/>
			<path d="M435,2016.1c-27.4-4.8-50.9-17.3-73.8-32.6c-17.7-11.9-33-25.9-47.2-41.4c-12.9-14.2-23.7-30.2-36.8-44.3
				c-7.2-7.7-6.3-21.6-17.3-27.9c-2.8-1.6-0.2-4,1-4.9c8.9-6.4,7.3-11.3-0.5-17.9c-4.8-4.1-5.2-11.9-2.8-17.7
				c3.2-8.1,0.8-15.1-0.8-22.8c-1.8-9.2-6.3-21.8-2.2-27.8c17.2-24.7,24.8-55.2,48.4-76c21.5-19,32.5-49.1,62.6-59.1
				c6.5-2.2,0.4-9.1,4.9-11.7c5.3-3.1,18.1-0.3,10.5-13.8c-0.3-0.6,3.5-6.2,7.9-6c2.4,0.1,7.2,0.2,4.8-2.8
				c-6.3-7.8,2.5-13.6,1.2-20.4c-7.2-2.2-35.5,9.5-41.4,17.4c-4.9,6.5-12,11.5-16.7,17.3c-9.3,11.4-22.5,17.7-32.4,28.8
				c-12.7,14.4-26.1,29-39.6,43.2c-11.8,12.3-24.9,24.6-27.1,43.2c-1,2.9-1.4,6-2.9,8.6c-7.3,12.5-7.4,12.4,7.4,17.7
				c-5.2,0.1-6.8,5.2-12.2,6.6c-6.5,1.8-8.6,9.9-5.5,16.5c3.4,7.1,6.4,11.7-0.3,20.1c-3.9,4.9-0.5,17,4.4,25
				c3.6,5.4,4.7,12.1,3.1,18.4c-3.4,14.7,1.8,30.4,9.4,40.7c11.7,15.8,9.9,39.1,32.8,49.8c10.3,4.8,14.7,24.1,25.1,34.5
				c10.2,10.2,21.5,19.1,33.7,26.7c-16.2,2.9-26.9,3.8-32-10.4c-1.6-4.4-4.8-5.2-9.1-6.7c-12.2-4.1-21.7-11.8-29.3-23
				c-8.6-12.6-20.3-22.9-28.3-36.2c-12.3-20.5-26-40.2-33.9-63.1c-2.9-8.3-8.7-15.2-13.3-21.9c-12.1-17.9-9.8-40.8-24.1-58.5
				c-4.9-6.2-18.9-20.1-7.8-34.6c1.7-2.2-0.7-5.2-2.8-6.7c-12.3-8.3-13-21.3-13.9-34.1c-1.1-15.4-5.5-14.7-20.3-12.5
				c-16.2,2.4-9.6,14.3-14.3,21c0.8,0.5,1.5,1.1,2.2,1.6c0.4,0.3,0.8,0.7,1.2,1c1.2,1,2.3,2.1,3.3,3.2c0.7,0.8,1.4,1.7,2.1,2.6l0,0
				c0.4,0.6,0.8,1.2,1.2,1.8c0.8,1.2,1.5,2.5,2.2,3.8c0.3,0.6,0.6,1.2,0.8,1.9s0.6,1.4,0.8,2.1s0.5,1.4,0.7,2.1s0.4,1.4,0.6,2.1
				c1.3,5.5,2.2,11,2.7,16.6c0.1,1.3,0.2,2.7,0.4,4.1s0.2,2.7,0.4,4c2.2,0,3.3,1.1,3.3,3.3c0.6,0.5,1.2,0.9,1.8,1.4
				c-0.3,0.4-0.6,0.7-0.9,1.1c-2.8,8.6-2.1,16.3,2.1,24.8c6,12.1,15.4,22.1,17.3,37c2.8,21.7,20.8,37.8,26.9,57.9
				c4.9,16.4,21.4,25.8,21.9,43.4c14.2,21.4,32.8,39,50.4,57.4c9.1,9.5,18.6,19,29.5,26.1c24.2,15.6,49.4,29.7,77.3,46.3
				c-22.2-1.8-42.3,3.7-59-4.4c-16.8-8.2-35.1,1-52-10.5c-9.8-6.6-22.8-12.2-35.1-16.7c-23.8-8.7-42.5-25.7-63.7-38.6
				c-9.6-5.9-19.7-9.3-26.5-19.9c-3.6-5.6-10.6-14.6-15.4-15.4c-25.7-4.3-32.8-30.2-51.4-43.1c-13.5-9.3-22.1-12.6-35.9-8.4
				c0.5,18.9,10.6,33.9,23.6,45c16.5,14.2,31.8,30.2,49,43c26.7,19.8,51,43.3,82.2,57.2c10.5,4.6,22.9,9.1,30,20
				c18.5,11.5,43.4-3.7,60.5,15.3c8.5,9.4,21.3,4.4,32,6.1c26.2,4.2,52.7,6,79.2,4c10.3-0.8,11.4-15.2,21.8-17.5
				c1.1-0.2-0.4-5.9-4.2-6.7c-3.5-0.7-7.1-1-11.2-1.5c4.4-6,0.7-20.2,15.7-13.5c1.5,0.7,4.1,1.1,4-2.6c-0.4-18.3,12.7-13.6,19.9-8.9
				c14,9.1,20.4-0.1,27.7-8.2C454.9,2023.4,453.4,2019.3,435,2016.1z M125.1,1767.1L125.1,1767.1l0.2,0.2v-0.1
				C125.2,1767.2,125.1,1767.1,125.1,1767.1z M122.1,1764L122.1,1764v0.2V1764C122.1,1764.1,122,1764,122.1,1764L122.1,1764z" style="fill:#4DABBE;"/>
			<path d="M724.6,1568.9c-1.2,10.2-2.7,20.5-4,30.7c-9.7,6.5-8.2,18.3-12.8,27.2c-10.8-4.5-7.5-16-4.2-19.6
				c7.4-8.1,6.2-16.3,5-24.8c-1.8-12.2-5.3-24.1-6.6-36.3c-0.8-8.1-2.6-14.2-10.8-16.9c-2.8-0.9-4.1-2.8-5-5.4
				c-11.2-35.2-38.2-48.3-72.4-51.3c-3.5-0.3-9.5,1.6-7.7-5.9c5.4-22.6-7.5-39.2-17.2-57.5c-6.9-12.9-11.9-27.3-17.2-41.3
				c-6-15.6-3.8-36.9-24.4-44.9c-0.8-0.3-1.6-3-1.1-3.9c9-15.9-3.7-27.9-10-38.5c-15-25.1-23.6-52.7-30-80.1
				c-5.5-23.4-20.3-42-25.2-65.1c-2.4-11.6-11.5-20.7-19.3-29.8c-15.7-18.3-32.8-5.8-48-0.1c-12.1,4.5-26.6,5.6-35.6,17.5
				c-2.2,2.8-6.8,1.7-10.5,1.2c0-4.3-0.6-8.5-4.1-11.4c-8.2-6.7-6.9-11.9,2.4-15.7c4-1.7,5.7-4,4.6-8.4c-0.7-2.7,0.1-5.5,2.8-6.6
				c25.2-9.6,50-20.3,75.8-28.2c14.8-4.5,28-4.6,42.6,24.8c10.9,22,20.9,45.1,28.1,68.1c7.1,22.7,12.3,46.9,21,68.8
				c5,12.5,10.3,26.9,19.1,39c8.2,11.2,8.8,26.8,16.1,39.2c0.9,1.6-0.5,4.9,0.6,6c12.3,13,12.2,31.2,19,46.5
				c8.7,19.4,22,36.8,26.1,58.5c1.5,7.8,4.9,15.3,1.3,21.9c36.6,6,63.7,21.8,83.2,55C722.8,1509.7,728.2,1537.7,724.6,1568.9z" style="fill:#E7646A;"/>
			<path d="M237.8,1738.8c-1,2.9-1.4,6.1-2.9,8.6c-7.3,12.5-7.4,12.4,7.4,17.7c-5.2,0.1-6.8,5.2-12.2,6.6
				c-6.5,1.8-8.6,9.9-5.5,16.5c3.3,7.1,6.3,11.6-0.3,20.1c-3.8,4.9-0.5,17,4.4,25c3.6,5.4,4.7,12.1,3.1,18.4
				c-3.4,14.7,1.8,30.4,9.4,40.7c11.7,15.8,9.9,39.1,32.8,49.8c10.3,4.8,14.7,24.1,25.1,34.5c10.2,10.2,21.5,19.1,33.7,26.7
				c-16.2,2.9-26.9,3.8-32-10.3c-1.6-4.4-4.8-5.3-9.1-6.7c-12.2-4-21.7-11.7-29.3-22.9c-8.6-12.6-20.3-22.9-28.3-36.2
				c-12.4-20.5-26.1-40.2-33.9-63.1c-2.9-8.3-8.7-15.2-13.3-21.9c-12.1-17.9-9.8-40.8-24.1-58.5c-5-6.2-18.9-20.1-7.9-34.6
				c1.7-2.2-0.7-5.2-2.8-6.7c-12.3-8.3-13-21.3-13.9-34.1c-1.1-15.4-5.5-14.7-20.3-12.4c-16.2,2.4-9.6,14.3-14.4,21
				c-0.9,0-1.8,0-2.7,0c-6.1-16.1-1.7-32.8-3-49.1c-0.9-12.1,6.1-21.2,9.2-31.6c2.3-7.6,10.8-6.1,17.1-7.1c0.1-5.6-5.2-1.6-6.5-4.3
				c14-12.8,45.9-10.1,57,6.6c3.7,5.4,8.4,10.1,13.8,13.8c3.8,2.8,8.3,5.3,4.4,11c-1.2,1.8-1.9,2.7,0.1,4.8
				c13.4,14.1,19.8,33.1,30.8,47.2C231.6,1718.4,227.2,1731.8,237.8,1738.8z" style="fill:#F3BB04;"/>
			<path d="M2440.1,1616.6c1,0.2,2,0.4,3.1,0.5c7.6,0.7,18.4-9,21.6,5.7c1.9,8.9-16.5,30.2-24.7,27.6
				c-8.6-2.7-7.8,2.3-10.4,6.4c-12.9,21-23.9,43.8-40.1,62c-14.6,16.4-30.2,32.9-50,44.5c-16.1,9.4-29.4,24.7-46.4,31.2
				c-19.8,7.5-37.7,18.3-56.6,27.1c-20.5,9.6-42,17.2-63.6,19.8c-10,1.2-14.2,9.4-22.6,9.1c-10-0.4-21.1-1.5-29.9-0.4
				c-37.5,5-72.3-1.7-108.1-12.1c-30.2-8.8-62.4-10.9-94.1-10.8c-12.4,0-24.8,6.2-37.3,8.9c-11.2,2.4-24.7-1-29.3,14.9
				c-1,3.5-6.9,2.6-7.3-0.5c-1.2-9.9-10.8-15.5-11.9-25.1c4.8,4.9,8.9,3.2,14.5,0.4c43-21.7,87.3-32.2,135.2-15.7
				c20,6.9,40.2,13.9,61.4,17.3c19.8,3.2,39.4,6,59.1,0.6c8-2.2,15.1,2.3,23,2.2c49.6-0.3,93-19.9,135.1-43.1
				c19-10.5,39.3-18.6,56.2-33.2c11-9.5,21.2-18.2,21.2-33.9c13-5.4,20.9-15.9,27-28c10-7.2,11.5-19.7,18.1-29.2
				c14-20.2,25-43.4,53.9-45.8c1.5,2.4,2.5,1.9,3.1-0.6L2440.1,1616.6z" style="fill:#4DABBE;"/>
			<path d="M2323.8,1360c-17.1,26.1-16.3,20.8-45.4,18.2c-12.8-1.1-25.1,1.6-37.8,1.1c-41.3-1.4-82.6-1.5-123.9,0
				c-46.2,1.7-92.5-4.1-138.4,0.1c-26.5,2.4-52.7-0.7-79.1,0.9c-19.4,1.2-39.4-0.2-59.3,0.2c-9.4,0.2-16-6.2-10.7-18.2
				c6.8-15.4,22.9-21.6,45.5-19.2c18,1.9,36.5,2.4,54.4,0.2c9-1.1,17.4,0,25.6,1c22.9,2.8,45.7-3.7,68.5,0.1
				c21.2,3.6,42.6,1.1,63.7,0.7c14.4-0.3,29.4,2.8,42.4,0.6c13.9-2.4,29.1,12.7,41-3.2c14.6,7.4,30.8-2.6,45.2,4.3
				c3.7,1.8,4.1,1.7,6.6-1.7c3.7-5.2,10.5-4.5,15.9-3.5c22.5,4.2,45.1,3.9,67.7,2.2C2317,1343.3,2321.1,1350.8,2323.8,1360z" style="fill:#1B3C4B;"/>
			<path d="M1453.3,290.9c0.2-5,0-10.1,4-13.3c6.1-5,7.1-11.1,5.8-18.1c-0.4-1.9,0-4,1.1-5.6
				c18.6-29.4,19.9-64.8,33.2-96.2c9-21.3,15.7-43.6,23.2-65.5c1-2.9,2.3-3.9,5.3-4.4c32-5.3,60.6,3.5,87,21.1
				c2.8,1.9,3.2,26.1,0.2,27.6c-12.2,6.1-15.8,19.6-24.7,28.4c-12.9,12.7-20.6,29.4-34.5,41.8c-8.2,7.3-14.9,18.7-21.6,28.8
				c-16.2,24.9-33.2,49.2-47,75.6c-2.7,5.1-7.5,6.1-11.9,4.4C1462.1,311.3,1454.7,303.3,1453.3,290.9z" style="fill:#E7646A;"/>
			<path d="M1296.5,105.3c-6.3,26.7-0.9,51-2.3,75.1c-0.9,15.2-7.2,28.8-7.5,44.1c-0.3,18.1-1.3,36.3-1.1,54.4
				c0.1,6.9,0.8,16.1-6.2,17.9c-7.7,1.9-15.8-1.4-20-8.1c-9-14.7-20.5-27.7-22.6-46.3c-1.1-9.6,1.5-19.1-3.4-29.4
				c-8.4-17.4-10.8-37.3-19.7-54.9c-1.6-3.1-3.3-9.5-2.7-9.8c13.5-6.7-0.7-12.6,0-17.5c1.9-12.5-2.1-20.8-9.7-29.8
				c-1.5-1.8,1.4-12.2,10.7-15.2c16.7-5.3,33.3-5.2,50.1-3.9c6.1,0.5,7.9-11.3,14-4.1c4,4.7,10-1.4,11.6,2.2
				C1291.8,89,1294.3,98.5,1296.5,105.3z" style="fill:#E7646A;"/>
			<path d="M2365.2,1692c-6.1,12.1-14,22.6-27,28c-8.9-23.8-4.1-48.1-1.7-72.1c2.5-25.2-3.1-50.3,1.3-75.4
				c4.5,4.4,9.8-5,14.9,1.4c10,12.3,29,22.8,26.3,38.3c-2.6,14.9,5.4,31.6-7.2,45.9c-5.5,6.2-16.2,10.8-13.7,24.1
				C2359.3,1688.3,2355.3,1689,2365.2,1692z" style="fill:#F3BB04;"/>
			<path d="M360.4,1285c11.5-9.3,25.5-12.9,39.2-17.3c4.6-1.5,6.7-0.6,8.4,3.4c1,2.4,2.4,4.6,3.5,7
				c9.4,20.8,9.4,20.8-11.3,27.1c-13.2,4.1-24.1,13-37.5,17.1c-5.8,1.8-9.5,0.3-14.2-0.3C355.5,1310.7,358.2,1298,360.4,1285z" style="fill:#E7646A;"/>
			<path d="M344.1,1147.1c10.6,5.4,10.1,18.8,18.6,25.9c2.4,2,1,5.7-3,6.9c-20.8,6.2-44.2,7.2-57.5,28.8
				c-0.8,1.2-4.9,0.4-7.5,0.5c1.1-10.8,7.3-20.2,4.7-32.4c-1.3-6.1,9.9-13.1,15.4-17.1C323,1154,331.4,1144.1,344.1,1147.1z" style="fill:#E7646A;"/>
			<path d="M473.3,1477.5c4.4,3.6,14.4,4.5,11,12.1s4.7,20.2-12.5,23.5s-24.3,21.7-33.2,35.5c-2.8,4.4-5.4,5.4-9.6,5.7
				c-0.3-23.6,12-41.3,28-56.6c2.6-2.2,4-5.3,4.1-8.7C461.5,1481.1,466.5,1478.4,473.3,1477.5z" style="fill:#E7646A;"/>
			<path d="M2440.4,1616.4c-0.6,2.5-1.6,3-3.1,0.6L2440.4,1616.4z" style="fill:#F3BB04;"/>
			<polygon points="252.5,2049.8 252.9,2050.8 251.9,2050.7 			" style="fill:#4DABBE;"/>
			<path d="M1491.2,1366c5.9,0.1,8.2-8.2,14.9-6.2c2.3-16.2-8.6-30.9-5.2-47.3c1.6-7.7,2.8-15.3-8.9-16
				c-2.2-0.1-4.1-2.3-2.5-4.3c10.1-12.1-2.8-18.4-7-26.6c-9.7-19.5-26.8-30.7-47.2-36.2c-12.1-3.3-25.1-8.2-36.8,2.5
				c-1.5,1.4-5.3,1.8-7.4,1c-15.3-5.9-31.3,0-41.5,7c-34.8,23.9-73.6,19.2-111.3,19.7c-35.5,0.5-70.8-2.7-105.5-14.3
				c-22.4-7.5-42.3-16.2-60.6-31.1c-8.3-6.8-18.1-13.6-29.7-15.4c-9.7-1.5-21.1,1.1-24.4-13.3c-0.8-3.5-7.2-3.2-11.4-1.8
				c-14.2,4.6-28.5,0.3-44.4,7.6c-21.7,10-35.7,20.9-40.2,43.6c-0.5,2.7-1.8,3.7-3.8,3.7c-15.2,0.3-10.6,12.7-12.6,20.8
				c-0.5,2,1,3.6-0.8,6.5c-15.4,26-22.2,52.7-5.4,81.1c2.4,4,5.7,8.9,1.2,14.1c-3.6,4.3-0.8,7.7,0.5,12.4c5,18,19.3,31.3,24.3,48.5
				c6.2,21,24.3,32.5,34,50.2c11.7,21.2,39.8,24,51.4,46c2.1,4.1,9.5,6.2,15.6,5.4c3.1-0.4,5.8-1,8.7,1.2
				c20.5,15.3,34.2,18.6,61.3,18.2c4.8-0.1,9.7,11.2,14.8-0.3c1,0.9,2.6,1.7,2.9,2.8c2.9,12.1,15.4,14.4,22.7,14.5
				c17.7,0.4,34.9,1.6,52.2,5.5c6,1.4,13,2.1,18.6,0.2c21.5-7.2,44-3.1,65.2-3c23.7,0.1,44.1-8.1,65.9-12.3
				c13.3-2.6,23.9-12.4,36.3-17.4c31.1-12.8,56-32.7,74.1-60.9c4.1-6.4,9.5-10.8,15-15.8c9.4-8.4,19.4-20.7,20.7-32.3
				c1.2-10.4,4.3-16.5,10.1-23.9c5.3-6.8,8.8-15.2,8.2-24.4c-6.8,0.4-13.5,0.8-12.8-9.2c-3.3-2.9-4.3-6.2-0.5-11.2
				C1490.9,1359.4,1491.1,1362.7,1491.2,1366z M1342.1,1543.9c-0.4-0.3-1.1-0.8-1.1-1.1c0.2-1,0.5-2,0.9-2.9
				c0.6,0.7,1.5,1.3,1.5,1.9C1343.4,1542.6,1342.6,1543.2,1342.1,1543.9z M1447.9,1367c-2.3,3.4-0.5,6.8-0.2,10.2
				c2.4,2.6,3.5,6.7,0.9,8.2c-8.3,4.7-9.2,11.4-6.2,19.1c-4.7,2.1-10-3.7-9.3-2.4c5.5,11.2-12.5,11.2-9.2,21.4
				c1.6,5.1-7.3,10.4-13.3,9.1c-5.4-1.2-6.7,3.3-6.3,6.4c1.4,12.4-3.3,18-16.1,18.4c-4.6,0.2-6.1,8.4-12.2,8.3
				c-7.2,14.4-20.6,21.2-34.2,27.8c-17.1,8.6-36.1,10.8-54.3,15.8c-1.5,0.4-3.4,0.9-4.6,0.3c-22.4-10.1-44.6,4.4-66.9,0.1
				c-3.3,0-6.5-0.1-9.7-0.1c-6.8,0.7-13.4,4.8-20.2,0.3c-28.8-3.2-58.7-2.5-85.8-11.1c-16.5-5.2-36.2-11.3-48.9-26.6
				c-17.1,0.8-26.1-10-33.2-23.4c-1,0.1-2,0.1-3,0.1h-0.4c-0.3,0-0.6,0-0.8-0.1h-0.2c-0.5-0.1-0.9-0.2-1.4-0.3h-0.1
				c-0.5-0.1-1-0.2-1.4-0.4c-0.4-0.2-0.8-0.3-1.2-0.5s-0.8-0.5-1.2-0.8c0,0-0.1-0.1-0.2-0.1c-0.4-0.3-0.8-0.6-1.2-1
				s-0.5-0.5-0.7-0.8c-0.4-0.4-0.7-0.8-1-1.2c-0.2-0.2-0.3-0.5-0.5-0.7c-0.9-1.4-1.6-2.8-2.3-4.3c-0.2-0.5-0.4-1-0.7-1.4
				c0-0.1,0-0.1-0.1-0.1c-0.4-0.8-0.7-1.6-1.1-2.4c-0.3-0.6-0.5-1.1-0.8-1.7c-0.1-0.2-0.2-0.3-0.2-0.5c-0.2-0.4-0.4-0.8-0.6-1.1
				c-0.3-0.5-0.6-1-1-1.5l-0.1-0.1c-0.3-0.4-0.6-0.8-1-1.2c-4.5-5.3-6.3-12.5-15.3-13.9c-5.8-0.9-8.2-6.2-6.4-13.4
				c2.3-8.9,1.2-7.3-7.2-9c-4.3-0.9-10.1-10.4-7.7-15.3c4.7-9.6-10.8-12.8-5.3-22.1c0.5-0.8-5.6,3.3-10.3,1.5
				c4.2-7.6,7.6-15-2.3-22.9c-5.1-4.1,3.8-7.7,7-11.1c-3.4-12.3-1.5-24.2,2.4-36c1.2-5.7-1.3-12.9,6.5-16c0.8-0.3,2-1.9,1.8-2.3
				c-10.9-19.9,6.8-11.5,13.7-14.4c3.3-1.3,0.4-10,8-8.3c0.9-12.1,9.8-7,13.9-4.8c10.1,5.6,25.2-0.6,31.8,14
				c0.8,1.8,9.6-3.6,13.9,1.7c6.6-1,11.6,1.5,13.5,7.7c2.4,7.9,8.7,11,15,14.5c13.9-2.1,22.7,8,30.4,15.9
				c11.4,11.8,25.4,11.3,39.1,15.7c22.1,7.1,46,4.2,67,14.7c9.9,5,21,0,31.1,3.3c19.3-1.4,38.8,0,57.8-5
				c22.1-5.8,44.2-11.8,66.3-17.7c8.5-10.7,20.5-14.1,33.1-16.3c6.2-3,13.4,1.2,19.6-2.9c0.8-0.5,3.2,0.3,4,1.3
				c1.8,2,0.3,3.6-1.3,5.1c-1.3,1.3-6.4-0.2-3.8,4c1.6,2.5,5.7,4.4,8.1,1.7c12.7-14.2,18.4,1.6,26.8,5.9c2.4,1.3,4.3,5.3,2.9,6.4
				c-6.7,5.3-3,8.5,0.5,13.6c4.3,6.3-2.5,12-3.7,18.1C1452.3,1350.8,1453.3,1358.9,1447.9,1367L1447.9,1367z" style="fill:#DE6167;"/>
			<path d="M1149.7,924.1c0,0.1,0,0.2,0,0.3h0.2c0-0.1,0-0.2,0.1-0.3S1149.7,924.2,1149.7,924.1z" style="fill:#E16065;"/>
			<path d="M1560,962.8c-27.3,0.9-55.1,1.3-81.6-2c-33.1-4.1-66.3-4.5-99.2-8.4c-26.9-3.1-55.3-0.2-80.9-7.5
				c-23.2-6.5-46.6-5.4-69.7-9.6c-20.3-3.8-41.7-3.7-62.6-6.8c-0.7-0.1-1.3-0.2-2-0.4s-1.3-0.4-1.9-0.6s-1.1-0.4-1.7-0.6
				c-0.4-0.1-0.8-0.3-1.2-0.4c-0.6-0.2-1.2-0.4-1.8-0.7c-0.4-0.1-0.7-0.2-1.1-0.3c-0.3-0.1-0.5-0.2-0.8-0.2c-1-0.3-2-0.6-3-0.7
				c-0.2,0-0.5-0.1-0.7-0.1c-0.4,0-0.8-0.1-1.2-0.1c-0.3,0-0.5,0-0.8,0c0-0.1,0-0.2,0.1-0.3s-0.2,0-0.2-0.1c0-0.5-0.1-1.1-0.4-1.5
				c-0.1-0.1-0.2-0.2-0.3-0.3c-0.6-0.4-1.4-0.5-2.1-0.4c-0.4,0-0.7,0.7-1.1,1c1.3,0.4,2.6,0.8,3.9,1.2c0,0.1,0,0.2,0,0.3h0.2
				c0,0.1,0,0.2-0.1,0.2s-0.1,0.3-0.2,0.5s-0.1,0.5-0.2,0.7s-0.1,0.4-0.2,0.6c-0.1,0.3-0.3,0.6-0.4,0.8s-0.2,0.4-0.3,0.5
				c0,0.1-0.1,0.1-0.2,0.2c-0.1,0.2-0.3,0.4-0.5,0.6c-0.5,0.4-1,0.7-1.5,0.9c-0.3,0.1-0.6,0.2-0.8,0.2c-2.8,0.4-6.3-1.3-9.2-1.1
				c-11.9,1-27.7,2.4-35-1c-14.7-7-30.1,8.8-42-5c-7.9,10-16.8,0.1-25.2,1.3c-2.2,0-4.3,0-6.4-0.1c-3.2-0.4-6.3-0.8-9.5-1.2
				c-4,2.4-8.5,2.8-11.6-0.4c-5.9-6-10-4.1-17.3-1.1c-6.7,2.7-16.3-1.6-24.5-2.8c-10,14.1-21.8,3-32.8,2.3c1.8-4.3,1.8-9.6,6.6-12.3
				c2.9-12.8,15.5-17.5,23.5-25.4c20.5-20.2,46.2-33.5,71.9-47.2c20.3-10.8,41.2-14.3,62.1-20.5c28-8.4,53.3,0.6,78.8,11.3
				c17,7.1,32.9,15,46.6,27.3c2.7,2.4,5.5,4.2,7.3,7.8c16.1,32.1,48.9,31.9,68.8,6c13.2-17.3,32.2-20.7,49.6-27.8
				c10.7-4.4,23.8-1.6,34.5-8.2c7.6-4.7,12.7,3.6,20.3,3.7c33.2,0.3,67.2-0.3,93.7,25.9c8.3,8.2,20.6,11.8,27.5,22
				c-0.2,6.1,3.7,8.7,8.6,10.6c-0.4,0.6-0.3,1.4,0.2,1.9c0.1,2,1,3,3.2,2.8l1,0.2c1,1,2,2.1,3.1,3.1c5.8,14.4,11.2,29,17.6,43.1
				C1559.5,951,1561,956.6,1560,962.8z" style="fill:#DE6167;"/>
			<path d="M1199.7,1064.5c-0.5-25.1-1.5-48.1-18.9-69.2c-17.1-20.7-32-41.8-63.1-38.1c-4.6,0.6-9.4-0.8-12.1-5.6
				c-1.6-0.6-3.2-1.2-4.8-1.8c-0.7-0.2-1.3-0.4-1.9-0.6c-0.4-0.1-0.7-0.2-1.1-0.3c-0.6-0.2-1.1-0.3-1.7-0.5
				c-4.6-1.3-9.5-1.5-14.2-0.5c-0.7,0.2-1.4,0.4-2.2,0.6c-0.7,0.2-1.5,0.5-2.2,0.8l0,0c-0.5,0.2-0.9,0.4-1.4,0.7l0,0
				c-0.5-0.8-1.1-1.5-1.8-2.2c-26.5,12.2-51.9,24.1-74.1,45.7c-15.5,15.1-13.8,33.4-24,48c-2.4,3.5-1.7,6.9,1.6,9.7
				c2.1,1.8,3.5,3.8,1.4,6.6c-14,18.6-12,35.4,1.5,54.3c5.8,8.1,8.3,17.9,18.7,22.7c2.3,1-5.4,8.2,0.4,12.3
				c15.4,10.9,26.2,27,48.7,29.1c19.6,1.8,38.6,8.7,58.5,2.3c11.1-3.6,21.9-8.2,33.7-9c6.6-0.5,12.3-2.6,13.7-10.3
				c1.2-6.2,7.1-8.6,10.5-12.9c10.1-13.2,20.9-26.1,29.1-40.4C1201.1,1093.4,1200,1079,1199.7,1064.5z M1138.4,1090.9
				c0.9,11.3-9.7,19.9-20.3,27.9c-11.1,8.3-21.7,11.5-35.1,12.8c-14.2-4.8-30.5-5.3-38.5-24.5c-3.2-7.7-11.8-14.4-13-24.4
				c-0.6-5.2-4.1-11.9,5-13.6c4.2-0.8,3-2.3,1.4-4.9c-8-13.7-3-24,8.4-33.1c6.9-5.5,7.2-17,17.5-19.7c2.4-0.7,5.9-4.1,6.4-3.7
				c14.3,13.4,34.3-1.1,49.5,10.2c3.5,2.6,3.9,4.8,5,7.8c1.2,3.3,2.2,6.9,6.7,7.6c11.7,1.9,16,10,10.9,20.2
				c-0.6,1.2-1.1,2.5-1.4,3.8C1163.9,1069.4,1137.4,1079.1,1138.4,1090.9L1138.4,1090.9z" style="fill:#F4F5F6;"/>
			<path d="M1418.8,1051.1L1418.8,1051.1c0.7-0.2,1.4-0.4,2.2-0.5C1420.3,1050.7,1419.6,1050.8,1418.8,1051.1z" style="fill:#F4F5F6;"/>
			<path d="M1490.2,1084.7c-1.9-19-0.3-38-13.2-52.1c-10-10.8-18.1-22.9-27-34.5c-3-3.9-7-5.9-11.8-8.2
				c-14.8-7.1-32.9,3.2-46.5-11.3c-4.9-5.2-8.5,11.9-19.8,8.2c-5.5-1.8-2.8-14.2-14.6-7.7c-23.9,13.2-47.1,25.2-68.1,44.5
				c-16.4,15.1-12.2,34.1-23.4,48.2c-0.9,1.2-0.7,4.7,0.4,5.8c6,5.9,0.9,9-1.8,14.1c-7.1,13.4-7.7,29.3,0,41.4
				c11.1,17.4,21.2,36,35.7,51.1c9.4,9.8,17.9,21.3,34.4,18.1c3.3-0.6,7.8-0.4,10.4,1.4c15,10.2,31.2,8.3,47.3,4.7
				c26-5.8,51-12.8,68.2-36.6c5.2-7.2,2.7-18.6,10.1-21.2c13.2-4.7,12.4-16.5,17.4-25.5C1495.4,1111.5,1484.2,1096.8,1490.2,1084.7z
				 M1437.6,1119.9c-1.1,17.4-19.4,21.4-30.5,30.9c-19.1,16.6-40.8,7.1-61.1,4.3c-7.6-1.1-12.8-13.2-16.7-20.3
				c-5.7-10.3-10-22.8-10.5-35.6c8.1-3.9,3.5-12.3,6.3-18.2c0-0.1,0-0.1,0.1-0.2h0.2c7.4,1,5.5-6.8,8.8-9.6c3.9-0.8,4.9-4.1,4.2-7.1
				c-2.3-9.8,2.6-13.2,11.2-14.1c2.5-0.3,5.8-0.6,7.3-2.2c17-17.7,36.6-7,55.4-5.6c3.6,0.2,4.6,2,5.1,4.1l0.5,2c0,0.1,0,0.2,0.1,0.3
				c0.1,0.4,0.2,0.8,0.3,1.2c0.1,0.4,0.4,0.8,0.6,1.2c0.7-0.2,1.4-0.4,2.2-0.5c-0.7,0.1-1.4,0.3-2.2,0.5l13.4,17.2
				C1444.3,1084.4,1438.7,1102.8,1437.6,1119.9z" style="fill:#F4F5F6;"/>
			<path d="M778,1186.2c-1.7-12.2,1.5-26.6,5.8-38.4c5.6-15,5-36.4,26.5-42.1c2.4-0.6,3.1-1.8,3-4.3
				c-0.9-16.7-18-32.9-36-34.3c-5.1-0.4-10.9-0.7-15.1-3.1c-14.4-8.6-23.8,4.4-35.5,7.2c-2.4,0.6-3.7,2.7-2.7,4.7
				c4.1,8.7-2.4,12.3-8.2,13.3c-7.5,1.3-14.4-3.8-18.1-9.7c-3-4.7-3.1-11.2,1.4-17.4c23.8-33.3,48.7-41,87-25.8
				c5.8,2.3,11.9,1,17.9,4.4c14.2,8.1,21.1,21.1,30.5,33.4c17.9,23.2,3,42.2-6.7,55c-8.7,11.6-15.2,20.8-17.9,35.2
				c-2.8,14.8,3.3,24.9,11.4,35.1c8.9,11.1,8.1,13.4-6.1,16.4C789.3,1221.2,777,1211.9,778,1186.2z" style="fill:#4DABBE;"/>
			<path d="M1626.6,1277.4c-5.4-16.5,12.9-17.7,19.5-25.9c14.7-18.3,17.7-28.2,1.1-44.5c-8.2-8.1-14.1-17.6-20.6-26.8
				s-5.8-19.6,0.2-27.7c14.7-19.6,31.8-38.8,57.9-39.2c15.4-0.2,30.6-7.8,46.7-0.9c7.1,3,9.9,8.7,14.6,13c3.1,2.8,1.4,9.3-1.3,9.3
				c-10-0.1-14.8,14.4-28.6,6.6c-15.8-8.9-52.1,8.1-60.4,24.4c-2.8,5.6,1.4,8.6,4.1,10.3c18.6,11.4,23.7,30.6,29.6,49.5
				c1.7,5.4,1.7,10.8-1.7,14.9c-9.1,11.4-8.8,30-28.7,34c-5,1-10.8,11.2-18.4,14.2C1630.7,1292.5,1624.2,1290.8,1626.6,1277.4z" style="fill:#4DABBE;"/>
			<path d="M1780.2,814.2c-10.8-3.7-22.4-7.4-32.3,1c-22.7,19-44.7,38.8-69.2,60.1c6.8-22.3,6-43.2,9.4-63.2
				c2.2-12.7-4.9-23.3-1.2-34.5c3.1-9.5,1.8-18.5-0.7-27.6c-7.4-26.3-8.3-53.9-12.1-80.6c-4.8-33.9-18.4-64.1-28.1-96
				c-5.7-18.5-14.2-36.1-19.6-54.6c-2.1-7.3-1.9-15-11.1-15.8c-7.6-0.6-24.6,15.4-25.3,21.3c-2.1,18.9-4.1,38.3-12.6,55.5
				c-14.5,29.3-33.4,56.2-51.7,84.2c-3.2-5.3-0.7-10-3.8-15.1c-13.8-22.7-21.6-48.2-35.4-71.4c-10.4-17.5-19.2-37.8-30.5-54.8
				c-16.3-24.3-31.1-49.6-52.6-71.5c-18.7-19-38.1-39-55.4-60.1c-6.3-7.7-18.5-16.5-17.4-23c2.3-13.2-5.1-9.7-10.9-10.5
				c-6.6-0.9-13.4-0.9-20-1.9c-2.9-0.4-6.6-0.4-6,2.1c3.2,13.9-10.9,12.5-16.1,18.9c-12.4,15.2-30.9,22.8-46.1,34.1
				c-16.4,12.2-33.5,24.1-49.8,36.6c-10.6,8-19.6,18.2-28.8,28c-17.2,18.5-33.9,37.5-51,56.2c-2.9,3.2-0.4,8.7-4.9,10.9
				c-21.5,10.1-26,34-40.4,50c-5.3,5.9-13.4,11.3-12.8,25.5c-10.6-26.5-20.4-48.1-27.6-70.5c-3.1-9.4-11.2-19.7-9.8-26.6
				c2.8-14-2.8-27.2,0.9-41.5c3.2-12.3,1.8-27.4-14.6-35.4c-9.9-4.8-14.2-5.1-18.4,5.6c-10.1,25.9-29.5,46.4-42,71.1
				c-10.8,21.4-25.7,40.6-35.1,63c-2,4.7,4.1,10-1.1,12.9c-15.1,8.5-11.3,24.8-15,37.3c-6.9,23.6-19.3,45.1-22.1,70.6
				c-1.5,13.9-4.9,28.4-6.8,42.7c-1.9,13.8-5.6,27.6-3,43c-2.7-13.5-15.3-17-21.7-25.9c-9.3-12.6-17.4-26.1-26.3-39
				c-7.4-10.6-17.9-14.1-30.7-14.1s-13.3,6.8-11.6,16.3c0.8,4.5,5.7,7.4,4.4,12.8c-7.6,31.3-5.9,60.1,5.4,92.8
				c0.3,1-0.6,2.5-0.9,3.7c-4.3,15.7-2.3,30.4,8.8,42.7c2.9,3.3,6.5,6.7,6.1,10.5c-1.1,10.6,4.9,17.9,9.2,26.5
				c8,15.9,21,29.6,23.1,48.3c1.2,0.9,2.3,2,3.3,3.2c12.6,18,17.1,45.8,49,40.9c0.4-0.1,0.9,1.9,1.7,2.4c9,6.2,13.3,1.9,14.4-7.1
				c0.8-6.7,1.1-13.3,6.3-18.5c9.5-7.9,6-22.2,15.3-30.6c6-5.5,7.3-13.4,6.7-21.5c4.2,0.1,8.4,0.4,9.8-5.2c1.3-5.3,5.3-7.4,10.5-7.6
				c1.8-4.3,1.8-9.6,6.6-12.3c2.9-12.8,15.5-17.5,23.5-25.4c20.5-20.2,46.2-33.5,71.9-47.2c20.3-10.8,41.2-14.3,62.1-20.5
				c28-8.4,53.3,0.6,78.8,11.3c17,7.1,32.9,15,46.6,27.3c2.7,2.4,5.5,4.2,7.3,7.8c16.1,32.1,48.9,31.9,68.8,6
				c13.2-17.3,32.2-20.7,49.6-27.8c10.7-4.4,23.8-1.6,34.5-8.2c7.6-4.7,12.7,3.6,20.3,3.7c33.2,0.3,67.2-0.3,93.7,25.9
				c8.3,8.2,20.6,11.8,27.5,22l23.4,5.1c-3.5,7.2-10.4,3.2-14.8,5.5c-0.4,0.6-0.3,1.4,0.2,1.9c1.1,0.9,2.1,1.8,3.2,2.8l1,0.2
				c1.5,0.6,4.3-0.2,3.1,3.1c5.8,14.4,11.2,29,17.6,43.1c2.7,5.9,4.2,11.4,3.2,17.6c6.3,5.6,8.9,12.1,10.2,21c3,21.2,1,42.9,8,63.7
				c5.2,15.5,14.2,28.9,20.7,43.6c5.1,11.4,22.3,14.6,31.6,5.9c17.8-16.7,39-29.9,50-53.1c1.1-2.3,5.1-3.2,7.8-4.8
				c0.1-0.5,0-1.2,0.3-1.5c19.7-21,32.1-47.6,52.8-67.9c1.4-1.4,1.8-3.7,3-5.3c8.9-11.9,8.5-27.4,14.1-40.8
				c6.7-16.1,11.5-34.6,15.7-52.5c3.6-15.4-3.9-32.8,9.1-46.5C1786.4,821.7,1784.8,815.8,1780.2,814.2z M862,906.7
				c-5.7,4-12.5,6.5-18.5,9.5c-12.3,0-11.2-7.5-8.4-14.5c2.7-6.8,20.4-9.5,26.4-5.3C866.4,899.9,865.2,904.4,862,906.7z
				 M925.4,830.3c-1,9-12.9,14.1-20.9,13.8c-8.7-0.3-18.8-12.6-18.4-17.2c0.9-9.5,11.6-12.6,23-9.3
				C922.3,810,926.1,823.3,925.4,830.3L925.4,830.3z M956.7,726c-17.9,8-24.4,5.5-28.5-8.3c-0.7-2.4-0.2-5.4-1.2-7.6
				c-8.7-17.7-7.9-19,11.5-19.5c8.3-1.2,8.9,6.5,12.4,10.4c2.3,2.5,4.3,6.6,4.2,9.9C954.9,716.2,966.5,721.5,956.7,726L956.7,726z
				 M1018.1,778.6c-5.3,0.5-13.4-3.2-12-10.9c1.8-9.7,5.8-18.9,18.6-18.9c7.3-0.1,11.6,2.9,12.9,11
				C1032.6,767.5,1028.9,777.7,1018.1,778.6L1018.1,778.6z M1122.6,664c-8.3,1.5-25.2-12.3-27.1-20.8c-0.9-3.8,2-8.1-2-11.4
				c-7.6-6.3-0.8-13,1.6-17.9c2.7-5.4,9.3-1.2,14,0.3c8.4,2.8,13.2,9.2,13.3,17.4c-2.5,7.8-2.6,15.6,4.1,23
				C1128.4,656.8,1129.1,662.9,1122.6,664L1122.6,664z M1164.6,753.3c-12,0.8-28.8-9.1-28.3-17.3c0.7-9.2,5.2-15.7,16.3-15.1
				c13.6,1,14.9,12.9,18.2,22.5C1172.4,748,1171.4,752.9,1164.6,753.3L1164.6,753.3z M1231.3,533.5c-2.3-9,2-14.5,11.5-15.3
				c7.8-0.6,23.3,17,22.2,26.6c-0.8,6.9-10,8.4-15.2,10.9C1242.7,559.1,1231.7,545.2,1231.3,533.5L1231.3,533.5z M1278.5,713.4
				c-8.1-0.8-21.8-3.7-20.2-18.4c0.6-5.2-5.4-5.9-5.4-10.6c0.1-8-3.5-17.3,5.4-22.5c6.5-3.7,24.3,6.1,26.5,14.1
				c1.6,6,2.3,12.2,3.2,17.6C1286.2,701.7,1289.9,714.4,1278.5,713.4L1278.5,713.4z M1336,471.8c-0.1-7.3,6.1-8.4,10.9-8.6
				c12-0.5,27.9,14.5,26.6,24.8c-0.9,7.2-4.1,13-12.3,10.1C1345.5,497.6,1336.2,487.7,1336,471.8z M1378.6,802.3
				c-9.5,0.3-28-20.6-27.8-30.8c1.8-4.5-2.9-13.3,5.2-13.9c8.5-0.7,17.7,1.5,22.1,11c3.4,7.4,3.6,15.8,7.8,23.2
				C1388.7,797.2,1384.6,802.1,1378.6,802.3L1378.6,802.3z M1445.9,631.1c-3,3.1-5.2,8.3-3.5,12.9c1.2,3.2,5.3,5.6,0.3,8.9
				c-3.8,2.5-7.1,0.1-10.2-1.5c-8.6-4.5-15.4-10.6-16.4-22.1c1.7-6.5,1.4-15.8,8-19.9c6.9-4.2,13.9,1.7,19.6,6.2
				C1448.8,619.6,1452.6,624.3,1445.9,631.1L1445.9,631.1z M1529.6,776.8c-3.7,3.6-10.7,14.3-11.5-2.1c-0.1-2.5-1.4-4.7-3.4-3.8
				c-9.1,4.1-10.3-3.4-10.5-8.3c-0.3-6.7,2-13.2,6.5-18.1c0.9-1,2.7-1.1,4.1-1.7c9.4,3,17.2,8.7,21.7,16.7
				C1540.3,766.3,1534.1,772.3,1529.6,776.8L1529.6,776.8z M1592.7,869.4c-10.8,0.1-23.2-13.1-22.9-23.4c3.7-7.5-0.4-20.9,12.9-23
				c9.6-1.4,21.5,16.7,21.2,30.7C1603.7,861.3,1602.1,869.2,1592.7,869.4L1592.7,869.4z M1622.5,712.6c-6.6,2.8-16.4-4.9-14.5-16.6
				c0.3-2,0-4.7,1.2-6c4.9-5.1-4.3-19.9,11-17.1s23.3,13.7,20.8,26.8c-1.2,6.4-3,12.7-5,20.7
				C1631.8,716.3,1632.2,708.5,1622.5,712.6L1622.5,712.6z M1657.4,1012c-3.8,4-3.8,8.1-5.4,12.3c-1.5,3.9-3.1,7.8-7.6,8.3
				c-9.2-0.4-21-25-16.2-33.3c5.6-9.7,11.9-18.8,17.6-28.5c3.7-6.3,7-6.5,11.9-1.2C1672.4,985.5,1672.8,996.2,1657.4,1012
				L1657.4,1012z M1712.1,906.4c-4.7,4.1-4.6,9-1.4,13.9c3.4,5.1-0.7,7.7-3.6,10.4c-3.7,3.5-6.9,0.6-9.3-2
				c-8.7-9.7-21.6-18.8-4-32.1c2.4-1.8,0.8-5.7-0.5-8.7c-1.5-3.5-0.7-6.2,6.1-5.5c5.5-0.2,10.3,4.3,14.2,10.2
				C1717,897.7,1716.9,902.2,1712.1,906.4L1712.1,906.4z" style="fill:#4DABBE;"/>
			<path d="M1076,950c0.5-0.2,0.9-0.5,1.4-0.7C1077,949.6,1076.5,949.8,1076,950L1076,950z" style="fill:#53B6C9;"/>
			<path d="M1096.1,948.4c-4.6-1.3-9.5-1.5-14.2-0.5C1086.5,946.9,1091.4,947.1,1096.1,948.4z" style="fill:#53B6C9;"/>
			<path d="M1491.2,1366c5.9,0.1,8.2-8.1,14.9-6.2l-2.2,15.5c-6.8,0.4-13.5,0.8-12.8-9.2L1491.2,1366z" style="fill:#CB6B72;"/>
			<path d="M1657.4,1012c-3.8,4-3.8,8.1-5.4,12.3c-1.5,3.9-3.1,7.8-7.6,8.3c-9.2-0.4-21-25-16.2-33.3
				c5.6-9.7,11.9-18.8,17.6-28.5c3.7-6.3,7-6.5,11.9-1.2C1672.4,985.5,1672.8,996.2,1657.4,1012z" style="fill:#CB6B72;"/>
			<path d="M1288.2,693.6c-2,8.1,1.7,20.8-9.7,19.7c-8.1-0.8-21.8-3.7-20.2-18.4c0.6-5.2-5.4-5.9-5.4-10.6
				c0.1-8-3.5-17.3,5.4-22.5c6.5-3.7,24.3,6.1,26.5,14.1C1286.6,682,1287.2,688.2,1288.2,693.6z" style="fill:#CB6B72;"/>
			<path d="M1122.6,664c-8.3,1.5-25.2-12.3-27.1-20.8c-0.9-3.8,2-8.1-2-11.4c-7.6-6.3-0.8-13,1.6-17.9
				c2.7-5.4,9.3-1.2,14,0.3c8.4,2.8,13.2,9.2,13.3,17.4c-2.5,7.8-2.6,15.6,4.1,23C1128.4,656.8,1129.1,662.9,1122.6,664z" style="fill:#CB6B72;"/>
			<path d="M1603.9,853.7c-0.2,7.6-1.8,15.6-11.2,15.7c-10.8,0.1-23.2-13.1-22.9-23.4c3.7-7.5-0.4-20.9,12.9-23
				C1592.3,821.6,1604.2,839.7,1603.9,853.7z" style="fill:#CB6B72;"/>
			<path d="M1641,699.7c-1.2,6.4-3,12.7-5,20.7c-4.2-4.1-3.8-11.9-13.5-7.8c-6.6,2.8-16.4-4.9-14.5-16.6
				c0.3-2,0-4.7,1.2-6c4.9-5.1-4.3-19.9,11-17.1S1643.5,686.6,1641,699.7z" style="fill:#CB6B72;"/>
			<path d="M956.7,726c-17.9,8-24.4,5.5-28.5-8.3c-0.7-2.4-0.2-5.4-1.2-7.6c-8.7-17.7-7.9-19,11.5-19.5
				c8.3-1.2,8.9,6.5,12.4,10.4c2.3,2.5,4.3,6.6,4.2,9.9C954.9,716.2,966.5,721.5,956.7,726z" style="fill:#CB6B72;"/>
			<path d="M1445.9,631.1c-3,3.1-5.2,8.3-3.5,12.9c1.2,3.2,5.3,5.6,0.3,8.9c-3.8,2.5-7.1,0.1-10.2-1.5
				c-8.6-4.5-15.4-10.6-16.4-22.1c1.7-6.5,1.4-15.8,8-19.9c6.9-4.2,13.9,1.7,19.6,6.2C1448.8,619.6,1452.6,624.3,1445.9,631.1z" style="fill:#CB6B72;"/>
			<path d="M1378.6,802.3c-9.5,0.3-28-20.6-27.8-30.8c1.8-4.5-2.9-13.3,5.2-13.9c8.5-0.7,17.7,1.5,22.1,11
				c3.4,7.4,3.6,15.8,7.8,23.2C1388.7,797.2,1384.6,802.1,1378.6,802.3z" style="fill:#CB6B72;"/>
			<path d="M1712.1,906.4c-4.7,4.1-4.6,9-1.4,13.9c3.4,5.1-0.7,7.7-3.6,10.4c-3.7,3.5-6.9,0.6-9.3-2
				c-8.7-9.7-21.6-18.8-4-32.1c2.4-1.8,0.8-5.7-0.5-8.7c-1.5-3.5-0.7-6.2,6.1-5.5c5.5-0.2,10.3,4.3,14.2,10.2
				C1717,897.7,1716.9,902.2,1712.1,906.4z" style="fill:#CB6B72;"/>
			<path d="M1373.5,488c-0.9,7.2-4.1,13-12.3,10.1c-15.7-0.6-25-10.5-25.2-26.3c-0.1-7.3,6.1-8.4,10.9-8.6
				C1358.9,462.7,1374.8,477.7,1373.5,488z" style="fill:#CB6B72;"/>
			<path d="M1264.9,544.9c-0.8,6.9-10,8.4-15.2,10.9c-7,3.3-18-10.7-18.4-22.3c-2.3-9,2-14.5,11.5-15.3
				C1250.5,517.7,1266,535.3,1264.9,544.9z" style="fill:#CB6B72;"/>
			<path d="M1164.5,753.3c-12,0.8-28.8-9.1-28.3-17.3c0.7-9.2,5.2-15.7,16.3-15.1c13.6,1,14.9,12.9,18.2,22.5
				C1172.4,748,1171.4,752.9,1164.5,753.3z" style="fill:#CB6B72;"/>
			<path d="M1529.5,776.8c-3.7,3.6-10.7,14.3-11.5-2.1c-0.1-2.5-1.4-4.7-3.4-3.8c-9.1,4.1-10.3-3.4-10.5-8.3
				c-0.3-6.7,2-13.2,6.5-18.1c0.9-1,2.7-1.1,4.1-1.7c9.4,3,17.2,8.7,21.7,16.7C1540.3,766.3,1534.1,772.3,1529.5,776.8z" style="fill:#CB6B72;"/>
			<path d="M925.3,830.3c-1,9-12.9,14.1-20.9,13.8c-8.7-0.3-18.8-12.6-18.4-17.2c0.9-9.5,11.6-12.6,23-9.3
				C922.3,810,926.1,823.3,925.3,830.3z" style="fill:#CB6B72;"/>
			<path d="M1037.6,759.9c-4.9,7.6-8.7,17.9-19.5,18.8c-5.3,0.5-13.4-3.2-12-10.9c1.8-9.7,5.8-18.9,18.6-18.9
				C1032,748.8,1036.3,751.7,1037.6,759.9z" style="fill:#CB6B72;"/>
			<path d="M862,906.7c-5.7,4-12.5,6.5-18.5,9.5c-12.3,0-11.2-7.5-8.4-14.5c2.7-6.8,20.4-9.5,26.4-5.3
				C866.4,899.9,865.2,904.4,862,906.7z" style="fill:#CB6B72;"/>
			<path d="M1546.5,888.5c-3.5,7.2-10.4,3.2-14.8,5.5c-4.9-1.9-8.9-4.5-8.6-10.6L1546.5,888.5z" style="fill:#4DABBE;"/>
			<path d="M1539.2,902.1c-1-1-2-2.1-3.1-3.1C1537.6,899.6,1540.5,898.8,1539.2,902.1z" style="fill:#4DABBE;"/>
			<path d="M1535.1,898.8c-2.1,0.3-3.1-0.7-3.2-2.8C1533,896.9,1534,897.9,1535.1,898.8z" style="fill:#4DABBE;"/>
			<path d="M2101.6,1503.2c0.2,22.2-1,44.5-2.6,66.7c-1.3,17.8-10.1,22.9-28.3,18c-9.6,2.7-19.5,8.2-28.3-1.8
				c-4.2-0.5-8.1-0.6-8.1-6.7c-0.2-25.5-0.8-51-1.2-76.4c-0.2-13.3,7.1-20.7,20.8-20.4c5.1,0.1,10.3-0.6,15.2-2.1
				C2088.7,1474.5,2101.3,1482.9,2101.6,1503.2z" style="fill:#F3BB04;"/>
			<path d="M2273.9,1503.2c0.2,22.2-1,44.5-2.6,66.7c-1.3,17.8-10.1,22.9-28.3,18c-9.6,2.7-19.5,8.2-28.4-1.8
				c-4.2-0.5-8.1-0.6-8.1-6.7c-0.2-25.5-0.8-51-1.2-76.4c-0.2-13.3,7.1-20.7,20.8-20.4c5.1,0.1,10.3-0.6,15.2-2.1
				C2261,1474.5,2273.6,1482.9,2273.9,1503.2z" style="fill:#F3BB04;"/>
			<path d="M621.2,1627.5c-7.9,9.8-14.3,22.3-29.4,25.7c-11,2.6-21.7,6.5-31.8,11.7c-15.8,8-32.6-5.6-38.3-29.2
				c0.5-14.9,0.3-29.7-8.5-42.7c7.2-6.9,1.8-23.3,17.8-23.6c-5.6,13.9,5.3,23.2,9.5,34.5c4.9,13.2,19.6,23.5,31.1,17.9
				c16.1-7.8,35-8.9,49.2-20.9C630.5,1609.5,626.2,1621.3,621.2,1627.5z" style="fill:#E56065;"/>
			<path d="M1428.5,1353.4c0,0.1,0,0.2-0.1,0.3l0.3,0.2c0-0.1,0-0.3,0-0.4L1428.5,1353.4z M1387.2,1318.8
				c0.4-0.1,0.7-0.2,1.1-0.2l0.1-0.1c0.1,0,0.1-0.1,0.2-0.1s0-0.1,0-0.1l0,0C1388.1,1318.4,1387.7,1318.6,1387.2,1318.8z
				 M1387.7,1325.3v0.4c0-0.9,0-1.8,0.1-2.8C1387.7,1323.7,1387.7,1324.6,1387.7,1325.3L1387.7,1325.3z" style="fill:#244653;"/>
			<path d="M1193.7,1446.1c-6.6,21,0.5,43.4-7.8,64c-28.8-3.2-58.7-2.5-85.8-11.1c-16.5-5.2-36.2-11.3-48.9-26.6
				c-6.2-17.3,4.1-33.5,3.6-50.4c-0.1-2,1.4-4,1.4-6c0.2-18.9-0.2-17.9,18.7-10.7c13.9,5.2,28.4,8.7,43.1,10.5
				c9.6,1.2,17.8,5.5,27,7.6c12.8,2.8,26-1.6,39,5.2C1193.1,1433.2,1196,1438.8,1193.7,1446.1z" style="fill:#F8F8F8;"/>
			<path d="M1200.3,1395.8c0.3,4.8-4.2,7.6-7,4.4c-12.8-14-29.8-5-44.4-8.8c-5.1-1.3-9.8-2.7-14.2-5.5
				c-2.3,0.9-4.5,1-6.4-1c-9.6-0.9-19-8.3-28.9-0.9c-0.8,2.4-2.8,3-4.2,1.3c-2.6-3.1-0.9-5.2,2.4-6.4c-2.6-7.7-10.2-0.1-13.8-4.5
				c-6.4,6.1-10,3.1-12.4-3.8c-13.6-7.6-11.4-19.6-8.8-31.8c4.2-19.8,0.1-40.7,7.4-60.1c13.9-2.1,22.7,8,30.4,15.9
				c11.4,11.8,25.4,11.3,39.1,15.7c22.1,7.1,46,4.2,67,14.7C1204.8,1348.7,1198.6,1371.9,1200.3,1395.8z" style="fill:#F4F5F6;"/>
			<path d="M1361.6,1305.8c-2.3,23.3-4.9,46.6-6.9,70c-0.5,6.1-4.1,7.4-8.6,9.4c-20.3,9.3-42.4,18.2-63.4,16.6
				c-16.3-1.2-28.7,13.3-44.6,5.8c-3.1-1.5-7.3-0.1-7-5.6c1.6-24.5-3.1-49.6,6.4-73.5c19.3-1.4,38.8,0,57.8-5
				C1317.4,1317.6,1339.5,1311.6,1361.6,1305.8z" style="fill:#F8F8F8;"/>
			<path d="M1349.5,1437.4c-3.8,18.7-3.9,37.8-7.7,56.3c-17.1,8.6-36.1,10.8-54.3,15.8c-1.5,0.4-3.4,0.9-4.6,0.3
				c-22.4-10.1-44.6,4.4-66.9,0.1c0.8-6.2,1.6-12.4,2.4-18.7c9.5-9.8,2.5-22.5,6-33.9c6.2-20.6,5.7-23.2,25.3-21.7
				c21.8,1.7,42.2-2.7,62.8-9.1c6.7-2.1,14.2-3.8,21.1-5.6C1350.3,1416.9,1351.4,1428,1349.5,1437.4z" style="fill:#F8F8F8;"/>
			<path d="M1041.5,1256.5c-8.2,24.4-2.9,50.6-10.3,75.1c-1.9,6.4,1.6,13-10.8,6c-25.2-14.2-42.8-37.9-68.5-51
				c1.2-5.7-1.3-12.9,6.5-16c0.8-0.3,2-1.9,1.8-2.3c-10.9-19.9,6.8-11.5,13.7-14.4c3.3-1.3,0.4-10,8-8.3c0.9-12.1,9.8-7,13.9-4.8
				c10.1,5.6,25.2-0.6,31.8,14C1028.3,1256.6,1037.1,1251.2,1041.5,1256.5z" style="fill:#F8F8F8;"/>
			<path d="M1030.1,1383.9c-10.3,16.9-5.8,35.8-7.8,53.8c-0.5,4.5-4,7.2-4.3,11.3c-1,0.1-2,0.2-3,0.1h-0.4l-0.8-0.1
				h-0.2c-0.5-0.1-0.9-0.2-1.4-0.3h-0.1c-0.5-0.1-1-0.2-1.4-0.4c-0.4-0.2-0.8-0.3-1.2-0.5s-0.8-0.5-1.2-0.8c0,0-0.1-0.1-0.2-0.1
				c-0.4-0.3-0.8-0.6-1.2-1s-0.5-0.5-0.7-0.8c-0.4-0.4-0.7-0.8-1-1.2c-0.2-0.2-0.3-0.5-0.5-0.7c-0.9-1.4-1.6-2.8-2.3-4.3
				c-0.2-0.5-0.4-1-0.7-1.4c0-0.1,0-0.1-0.1-0.1c-0.3-0.8-0.7-1.6-1.1-2.4c-0.2-0.6-0.5-1.1-0.8-1.7c-0.1-0.2-0.2-0.3-0.2-0.5
				c-0.2-0.4-0.4-0.8-0.6-1.1c-0.3-0.5-0.6-1-1-1.5l-0.1-0.1c-0.3-0.4-0.6-0.8-1-1.2c-4.5-5.3-6.3-12.5-15.3-13.9
				c-5.8-0.9-8.2-6.2-6.4-13.4c2.3-8.9,1.2-7.3-7.2-9c-4.3-0.9-10.1-10.4-7.7-15.3c4.7-9.6-10.8-12.8-5.3-22.1
				c0.5-0.8-5.6,3.3-10.3,1.5c4.2-7.6,7.6-15-2.3-22.9c-5.1-4.1,3.8-7.7,7-11.1c14.6,17.6,34.7,28.5,52,42.9c7,5.8,16,9.4,24.2,13.4
				C1028.2,1380.2,1032.9,1379.4,1030.1,1383.9z" style="fill:#F4F5F6;"/>
			<path d="M1388.6,1318.2C1388.6,1318.2,1388.6,1318.3,1388.6,1318.2c0,0.1-0.1,0.2-0.2,0.2L1388.6,1318.2
				L1388.6,1318.2z" style="fill:#F4F5F6;"/>
			<path d="M1428.4,1353.7c0-0.1,0-0.2,0.1-0.3h0.3L1428.4,1353.7z" style="fill:#F4F5F6;"/>
			<path d="M1447.7,1342.7c-3.8,1.3-8.4,1.2-12.2,2.5c-0.4,0.1-0.9,0.3-1.3,0.5c-0.3,0.1-0.5,0.2-0.8,0.4
				c-0.3,0.1-0.5,0.3-0.8,0.5c-0.4,0.3-0.7,0.5-1.1,0.8c-0.3,0.2-0.5,0.5-0.8,0.8l0,0c-0.3,0.3-0.5,0.6-0.7,0.9
				c-0.5,0.7-0.9,1.6-1.2,2.4c-0.1,0.3-0.2,0.6-0.3,0.9c-0.1,0.3-0.2,0.7-0.2,1c-10.2-0.5-18.4,4.9-25.3,10.8
				c-3.9,3.4-9.2,4.4-14.1,2.8c-5-1.7-2.6-8.4-1.1-12.2c0.3-0.8,0.6-1.5,0.8-2.3c1-3.9,1.2-8,0.6-12c-0.2-1.7-0.4-3.3-0.7-5
				c-0.2-0.9-0.3-1.9-0.4-2.8c-0.2-1.1-0.3-2.2-0.4-3.4c-0.1-0.6-0.1-1.1-0.1-1.7c-0.1-0.6-0.1-1.1-0.1-1.7v-0.4
				c0-0.8,0-1.6,0.1-2.4c0.1-1.6,0.4-3.1,0.8-4.6c1.4-1,2.6-2.2,3.6-3.5c0.2-0.3,0.4-0.6,0.6-0.9s0.3-0.6,0.5-0.9s0.3-0.6,0.4-0.9
				s0.3-0.8,0.4-1.2c0.2-0.8,0.4-1.7,0.5-2.6c0.7-6.1-1.6-12.9,0.2-18.8c6.2-3,13.4,1.2,19.6-2.9c0.8-0.5,3.2,0.3,4,1.3
				c1.8,2,0.3,3.6-1.3,5.1c-1.3,1.3-6.4-0.2-3.8,4c1.6,2.5,5.7,4.4,8.1,1.7c12.7-14.2,18.4,1.6,26.8,5.9c2.4,1.3,4.3,5.3,2.9,6.4
				c-6.7,5.3-3,8.5,0.5,13.6C1455.8,1330.9,1449,1336.6,1447.7,1342.7z" style="fill:#F4F5F6;"/>
			<path d="M1448.6,1385.4c-8.3,4.7-9.2,11.4-6.2,19.1c-4.7,2.1-10-3.7-9.3-2.4c5.5,11.2-12.5,11.2-9.2,21.4
				c1.6,5.1-7.3,10.4-13.3,9.1c-5.4-1.2-6.7,3.3-6.3,6.4c1.4,12.4-3.3,18-16.1,18.4c-4.6,0.2-6.1,8.4-12.2,8.3
				c4.4-18.5,3.1-37.3,4.5-56c0.3-4,3-18.2,16-12.2c3.5,1.6,7.4,0.6,10.4-1.4c12.7-8.4,25.4-16.6,40.8-19
				C1450.1,1379.8,1451.2,1384,1448.6,1385.4z" style="fill:#F4F5F6;"/>
			<path d="M1447.7,1342.7c-3.8,1.3-8.4,1.2-12.2,2.5c-0.4,0.2-0.9,0.3-1.3,0.5l-0.8,0.4c-0.2,0.2-0.5,0.3-0.8,0.5
				c-0.4,0.3-0.7,0.5-1.1,0.8c-0.3,0.2-0.5,0.5-0.8,0.8l0,0c-0.3,0.3-0.5,0.6-0.7,0.9c-0.5,0.7-0.9,1.6-1.2,2.4
				c-0.1,0.3-0.2,0.6-0.3,0.9c-0.1,0.3-0.2,0.7-0.2,1h0.3c0,0.1,0,0.3,0,0.4l1.6,0.7l-1.7,0.9c0-0.5,0.1-1.1,0.1-1.6l-0.3-0.2
				c0-0.1,0-0.2,0.1-0.3c-10.2-0.5-18.4,4.9-25.3,10.8c-3.9,3.4-9.2,4.4-14.1,2.8c-5-1.7-2.6-8.4-1.1-12.2c0.3-0.8,0.6-1.5,0.8-2.3
				c1-3.9,1.2-8,0.6-12c-0.2-1.7-0.4-3.3-0.7-5c-0.2-0.9-0.3-1.9-0.4-2.8c-0.2-1.1-0.3-2.3-0.4-3.4s-0.2-2.3-0.2-3.4
				c0-0.9,0-1.8,0.1-2.8c0.1-1.6,0.4-3.1,0.8-4.6c-0.1,0-0.1,0.1-0.2,0.1l-0.1,0.1c-0.4,0.1-0.7,0.2-1.1,0.2
				c0.5-0.2,0.9-0.3,1.3-0.5l0,0v0.1c1.4-1,2.6-2.2,3.6-3.5c0.2-0.3,0.4-0.6,0.6-0.9s0.3-0.6,0.5-0.9s0.3-0.6,0.4-0.9
				s0.3-0.8,0.4-1.2c0.2-0.8,0.4-1.7,0.5-2.6c0.7-6.1-1.6-12.9,0.2-18.8c-12.7,2.2-24.6,5.6-33.1,16.3c-2.3,23.3-4.9,46.6-6.9,70
				c-0.5,6.1-4.1,7.4-8.6,9.4c-20.3,9.3-42.4,18.2-63.4,16.6c-16.3-1.2-28.7,13.3-44.6,5.8c-3.1-1.5-7.3-0.1-7-5.6
				c1.6-24.5-3.1-49.6,6.4-73.5c-10.1-3.3-21.2,1.7-31.1-3.3c-1.6,23.6-7.8,46.8-6.1,70.7c0.3,4.8-4.2,7.6-7,4.4
				c-12.8-14-29.8-5-44.4-8.8c-5.1-1.3-9.8-2.7-14.2-5.5c-2.3,0.9-4.5,1-6.4-1c-9.6-0.9-19-8.3-28.9-0.9c-0.8,2.4-2.8,3-4.2,1.3
				c-2.6-3.1-0.9-5.2,2.4-6.4c-2.6-7.7-10.2-0.1-13.8-4.5c-6.4,6.1-10,3.1-12.4-3.8c-13.6-7.6-11.4-19.6-8.8-31.8
				c4.2-19.8,0.1-40.7,7.4-60.1c-6.3-3.5-12.6-6.6-15-14.5c-1.9-6.2-6.9-8.7-13.5-7.7c-8.2,24.4-2.9,50.6-10.3,75.1
				c-1.9,6.4,1.6,13-10.8,6c-25.2-14.2-42.8-37.9-68.5-51c-4,11.8-5.9,23.7-2.4,36c14.6,17.6,34.7,28.5,52,42.9
				c7,5.8,16,9.4,24.3,13.4c2.6,1.2,7.2,0.5,4.4,5c-10.3,16.9-5.8,35.8-7.8,53.8c-0.5,4.5-4,7.2-4.3,11.3l0,0
				c7.1,13.4,16.1,24.2,33.2,23.4c-6.2-17.3,4.1-33.5,3.6-50.4c-0.1-2,1.4-4,1.4-6c0.2-18.9-0.2-17.9,18.7-10.7
				c13.9,5.2,28.4,8.7,43.1,10.5c9.6,1.2,17.8,5.5,27,7.6c12.8,2.8,26-1.6,39,5.2c9.1,4.7,12,10.2,9.7,17.6c-6.6,21,0.5,43.4-7.8,64
				c6.8,4.5,13.5,0.4,20.2-0.3c3.2,0,6.5,0.1,9.7,0.1c0.8-6.2,1.6-12.4,2.4-18.7c9.5-9.8,2.5-22.5,6-33.9
				c6.2-20.6,5.7-23.2,25.3-21.7c21.8,1.7,42.2-2.7,62.8-9.1c6.7-2.1,14.2-3.8,21.1-5.6c16.8-4.2,17.9,6.9,16,16.3
				c-3.8,18.7-3.9,37.8-7.7,56.3c13.6-6.6,26.9-13.4,34.2-27.8c4.4-18.5,3.1-37.3,4.5-56c0.3-4,3-18.2,16-12.2
				c3.5,1.6,7.4,0.6,10.4-1.4c12.7-8.4,25.4-16.6,40.8-19c-0.4-3.4-2.1-6.8,0.2-10.2C1453.3,1358.9,1452.3,1350.8,1447.7,1342.7z
				 M1386,1370.5l0.6-1.1l0.4,1.2L1386,1370.5z" style="fill:#173948;"/>
			<path d="M1491.1,1366.1c-3.3-3-4.3-6.2-0.5-11.2L1491.1,1366.1L1491.1,1366.1z" style="fill:#CB6B72;"/>
			<path d="M1342,1539.9c0.6,0.7,1.6,1.3,1.5,1.9c-0.1,0.7-0.9,1.4-1.4,2.1c-0.4-0.4-1.1-0.8-1.1-1.1
				C1341.3,1541.9,1341.6,1540.9,1342,1539.9z" style="fill:#F3BB04;"/>
			<path d="M1149.7,924.1c-1.3-0.4-2.6-0.8-3.9-1.2c0.4-0.3,0.7-1,1.1-1c0.7-0.1,1.5,0,2.1,0.4c0.1,0.1,0.2,0.2,0.3,0.3
				C1149.6,923.1,1149.7,923.6,1149.7,924.1z" style="fill:#F3BB04;"/>
			<path d="M1149.9,924.2l-0.2,0.3c0-0.1,0-0.2,0-0.3C1149.7,924.2,1149.8,924.2,1149.9,924.2z" style="fill:#F3BB04;"/>
			<path d="M1138.4,1090.9c0.9,11.3-9.7,19.9-20.3,27.9c-11.1,8.3-21.7,11.5-35.1,12.8c-14.2-4.8-30.5-5.3-38.5-24.5
				c-3.2-7.7-11.8-14.4-13-24.4c-0.6-5.2-4.1-11.9,5-13.6c4.2-0.8,3-2.3,1.4-4.9c-8-13.7-3-24,8.4-33.1c6.9-5.5,7.2-17,17.5-19.7
				c2.4-0.7,5.9-4.1,6.4-3.7c14.3,13.4,34.3-1.1,49.5,10.2c3.5,2.6,3.9,4.8,5,7.8c1.2,3.3,2.2,6.9,6.7,7.6c11.7,1.9,16,10,10.9,20.2
				c-0.6,1.2-1.1,2.5-1.4,3.8C1163.9,1069.4,1137.4,1079.1,1138.4,1090.9z" style="fill:#1B3C4B;"/>
			<path d="M1437.6,1119.9c-1.1,17.4-19.4,21.4-30.5,30.9c-19.1,16.6-40.8,7.1-61.1,4.3c-7.6-1.1-12.8-13.2-16.7-20.3
				c-5.7-10.3-10-22.8-10.5-35.6c8.1-3.9,3.5-12.3,6.3-18.2c0-0.1,0-0.1,0.1-0.2h0.2c7.4,1,5.5-6.8,8.8-9.6c3.9-0.8,4.9-4.1,4.2-7.1
				c-2.3-9.8,2.6-13.2,11.2-14.1c2.5-0.3,5.8-0.6,7.3-2.2c17-17.7,36.6-7,55.4-5.6c3.6,0.2,4.6,2,5.1,4.1l0.5,2c0,0.1,0,0.2,0.1,0.3
				c0.1,0.4,0.2,0.8,0.3,1.2c0.1,0.4,0.4,0.8,0.6,1.2l0,0l13.4,17.2C1444.3,1084.4,1438.7,1102.8,1437.6,1119.9z" style="fill:#1B3C4B;"/>
			<path d="M1421,1050.6c-0.7,0.1-1.4,0.3-2.2,0.5l0,0C1419.5,1050.9,1420.3,1050.7,1421,1050.6z" style="fill:#53B6C9;"/>
			<polygon points="1325.2,1080.9 1325.2,1081 1325.1,1080.9 			" style="fill:#4DABBE;"/>
			<path d="M1325.2,1081h-0.2c0-0.1,0-0.1,0.1-0.2L1325.2,1081z" style="fill:#4DABBE;"/>
			<path d="M1325.2,1080.9v0.2h-0.2C1325,1081,1325,1081,1325.2,1080.9L1325.2,1080.9z" style="fill:#1B3C4B;"/>
			<path d="M1388.6,1318.3l-0.2,0.2l-0.1,0.1c-0.4,0.1-0.7,0.2-1.1,0.2C1387.7,1318.6,1388.1,1318.4,1388.6,1318.3z" style="fill:#F4F5F6;"/>
			<path d="M1428.8,1353.4c0,0.1,0,0.3,0,0.4l-0.3-0.2L1428.8,1353.4z" style="fill:#F4F5F6;"/>
			<path d="M1428.7,1355.4c0-0.5,0.1-1.1,0.1-1.6l1.6,0.7L1428.7,1355.4z" style="fill:#F4F5F6;"/>
			<polygon points="1387,1370.6 1385.9,1370.5 1386.6,1369.4 			" style="fill:#F4F5F6;"/>
		</g>
	</g>
</g>
</svg>